<svg xmlns="http://www.w3.org/2000/svg" width="121" height="37" viewBox="0 0 121 37" fill="none"><path d="M45.2191 0.932617C44.7365 0.932617 44.3453 1.32064 44.3453 1.79928V36.1333C44.3453 36.6119 44.7365 37 45.2191 37H47.1079C47.5905 37 47.9817 36.6119 47.9817 36.1333V1.79928C47.9817 1.32064 47.5905 0.932617 47.1079 0.932617H45.2191Z" fill="white"/><path d="M7.98173 16.2262C7.98173 15.7476 8.37293 15.3596 8.85551 15.3596H10.7443C11.2269 15.3596 11.6181 15.7476 11.6181 16.2262V36.1333C11.6181 36.612 11.2269 37 10.7443 37H8.85551C8.37293 37 7.98173 36.6119 7.98173 36.1333V16.2262Z" fill="white"/><path d="M0.708984 27.0464C0.708984 26.5678 1.10019 26.1798 1.58277 26.1798H3.47156C3.95414 26.1798 4.34535 26.5678 4.34535 27.0464V36.1333C4.34535 36.612 3.95414 37 3.47156 37H1.58277C1.10019 37 0.708984 36.612 0.708984 36.1333V27.0464Z" fill="white"/><path d="M37.0726 34.2599C37.0726 33.7813 37.4638 33.3932 37.9464 33.3932H39.8352C40.3178 33.3932 40.709 33.7813 40.709 34.2599V36.1333C40.709 36.612 40.3178 37 39.8352 37H37.9464C37.4638 37 37.0726 36.612 37.0726 36.1333V34.2599Z" fill="white"/><path d="M81.5828 33.3932C81.1002 33.3932 80.709 33.7813 80.709 34.2599V36.1333C80.709 36.612 81.1002 37 81.5828 37H83.4716C83.9541 37 84.3454 36.612 84.3454 36.1333V34.2599C84.3454 33.7813 83.9541 33.3932 83.4716 33.3932H81.5828Z" fill="white"/><path d="M15.2544 1.79928C15.2544 1.32064 15.6456 0.932617 16.1282 0.932617H18.017C18.4996 0.932617 18.8908 1.32064 18.8908 1.79928V36.1333C18.8908 36.6119 18.4996 37 18.017 37H16.1282C15.6456 37 15.2544 36.6119 15.2544 36.1333V1.79928Z" fill="white"/><path d="M52.4919 8.1461C52.0093 8.1461 51.6181 8.53412 51.6181 9.01277V36.1333C51.6181 36.612 52.0093 37 52.4919 37H54.3807C54.8632 37 55.2544 36.612 55.2544 36.1333V9.01277C55.2544 8.53412 54.8632 8.1461 54.3807 8.1461H52.4919Z" fill="white"/><path d="M22.5272 16.2262C22.5272 15.7476 22.9184 15.3596 23.401 15.3596H25.2898C25.7723 15.3596 26.1635 15.7476 26.1635 16.2262V36.1333C26.1635 36.612 25.7723 37 25.2898 37H23.401C22.9184 37 22.5272 36.6119 22.5272 36.1333V16.2262Z" fill="white"/><path d="M30.6737 26.1798C30.1911 26.1798 29.7999 26.5678 29.7999 27.0464V36.1333C29.7999 36.612 30.1911 37 30.6737 37H32.5625C33.045 37 33.4362 36.612 33.4362 36.1333V27.0464C33.4362 26.5678 33.045 26.1798 32.5625 26.1798H30.6737Z" fill="white"/><path d="M58.8908 16.2262C58.8908 15.7476 59.282 15.3596 59.7646 15.3596H61.6534C62.136 15.3596 62.5272 15.7476 62.5272 16.2262V36.1333C62.5272 36.612 62.136 37 61.6534 37H59.7646C59.282 37 58.8908 36.6119 58.8908 36.1333V16.2262Z" fill="white"/><path d="M67.0373 8.1461C66.5547 8.1461 66.1635 8.53412 66.1635 9.01277V36.1333C66.1635 36.612 66.5547 37 67.0373 37H68.9261C69.4087 37 69.7999 36.612 69.7999 36.1333V9.01277C69.7999 8.53412 69.4087 8.1461 68.9261 8.1461H67.0373Z" fill="white"/><path d="M73.4363 1.79928C73.4363 1.32064 73.8275 0.932617 74.31 0.932617H76.1988C76.6814 0.932617 77.0726 1.32064 77.0726 1.79928V36.1333C77.0726 36.6119 76.6814 37 76.1988 37H74.31C73.8275 37 73.4363 36.6119 73.4363 36.1333V1.79928Z" fill="white"/><path d="M88.8555 0.932617C88.3729 0.932617 87.9817 1.32064 87.9817 1.79928V36.1333C87.9817 36.6119 88.3729 37 88.8555 37H90.7443C91.2269 37 91.6181 36.6119 91.6181 36.1333V1.79928C91.6181 1.32064 91.2269 0.932617 90.7443 0.932617H88.8555Z" fill="white"/><path d="M95.2544 1.79928C95.2544 1.32064 95.6457 0.932617 96.1282 0.932617H98.017C98.4996 0.932617 98.8908 1.32064 98.8908 1.79928V36.1333C98.8908 36.6119 98.4996 37 98.017 37H96.1282C95.6457 37 95.2544 36.6119 95.2544 36.1333V1.79928Z" fill="white"/><path d="M103.401 26.1798C102.918 26.1798 102.527 26.5678 102.527 27.0464V36.1333C102.527 36.612 102.918 37 103.401 37H105.29C105.772 37 106.164 36.612 106.164 36.1333V27.0464C106.164 26.5678 105.772 26.1798 105.29 26.1798H103.401Z" fill="white"/><path d="M109.8 27.0464C109.8 26.5678 110.191 26.1798 110.674 26.1798H112.562C113.045 26.1798 113.436 26.5678 113.436 27.0464V36.1333C113.436 36.612 113.045 37 112.562 37H110.674C110.191 37 109.8 36.612 109.8 36.1333V27.0464Z" fill="white"/><path d="M117.946 26.1798C117.464 26.1798 117.073 26.5678 117.073 27.0464V36.1333C117.073 36.612 117.464 37 117.946 37H119.835C120.318 37 120.709 36.612 120.709 36.1333V27.0464C120.709 26.5678 120.318 26.1798 119.835 26.1798H117.946Z" fill="white"/></svg>