<svg width="120" height="80" viewBox="0 0 120 80" fill="none" xmlns="http://www.w3.org/2000/svg">
<path d="M11.5159 61.9543H15.5074C15.885 61.9543 16.0737 62.1438 16.0737 62.5226V78.7855C16.0737 79.1643 15.885 79.3537 15.5074 79.3537H13.2959C12.9183 79.3537 12.7295 79.1643 12.7295 78.7855V65.9592H12.6217L9.87079 75.0242C9.76291 75.385 9.53817 75.5654 9.19656 75.5654H6.93113C6.58952 75.5654 6.36477 75.385 6.25689 75.0242L3.45208 65.9321H3.3442V78.7855C3.3442 79.0019 3.30824 79.1553 3.23632 79.2455C3.16441 79.3176 3.01158 79.3537 2.77785 79.3537H0.566357C0.188786 79.3537 0 79.1643 0 78.7855V62.5226C0 62.1438 0.188786 61.9543 0.566357 61.9543H4.58479C4.83651 61.9543 5.00731 62.0806 5.09721 62.3332L7.95596 71.8852H8.11778L11.0035 62.3332C11.0574 62.0806 11.2282 61.9543 11.5159 61.9543Z" fill="#212529"/>
<path d="M28.9809 61.9543H31.2463C31.6419 61.9543 31.8397 62.1347 31.8397 62.4955V74.943C31.8397 76.3501 31.4441 77.4415 30.653 78.2172C29.8799 78.9749 28.7921 79.3537 27.3897 79.3537H24.4231C23.0027 79.3537 21.9059 78.9749 21.1328 78.2172C20.3597 77.4595 19.9731 76.3681 19.9731 74.943V62.5226C19.9731 62.1438 20.1619 61.9543 20.5395 61.9543H22.8319C23.2095 61.9543 23.3982 62.1438 23.3982 62.5226V74.7806C23.3982 75.3579 23.5151 75.7728 23.7488 76.0254C24.0006 76.2599 24.4051 76.3772 24.9625 76.3772H26.8234C27.3987 76.3772 27.8032 76.2599 28.037 76.0254C28.2887 75.7728 28.4146 75.3579 28.4146 74.7806V62.5226C28.4146 62.1438 28.6033 61.9543 28.9809 61.9543Z" fill="#212529"/>
<path d="M35.3071 74.9159V74.3747C35.3071 73.9959 35.4959 73.8065 35.8735 73.8065H38.1659C38.5434 73.8065 38.7322 73.9959 38.7322 74.3747V74.5912C38.7322 75.2767 38.8671 75.7458 39.1368 75.9983C39.4065 76.2509 39.9009 76.3772 40.6201 76.3772H41.8876C42.5888 76.3772 43.0743 76.2419 43.344 75.9713C43.6317 75.7007 43.7755 75.1955 43.7755 74.4559V74.1312C43.7755 73.608 43.5598 73.2112 43.1282 72.9406C42.7147 72.6519 42.1933 72.4806 41.564 72.4264C40.9347 72.3723 40.2515 72.2731 39.5143 72.1288C38.7952 71.9664 38.1209 71.768 37.4916 71.5335C36.8624 71.2809 36.332 70.8029 35.9004 70.0993C35.4869 69.3777 35.2802 68.4577 35.2802 67.3392V66.3921C35.2802 64.985 35.6757 63.8936 36.4668 63.1179C37.2579 62.3422 38.3547 61.9543 39.7571 61.9543H42.454C43.8744 61.9543 44.9801 62.3422 45.7712 63.1179C46.5623 63.8936 46.9579 64.985 46.9579 66.3921V66.9063C46.9579 67.2851 46.7691 67.4745 46.3915 67.4745H44.0991C43.7216 67.4745 43.5328 67.2851 43.5328 66.9063V66.7439C43.5328 66.0404 43.3979 65.5623 43.1282 65.3097C42.8585 65.0572 42.3641 64.9309 41.6449 64.9309H40.5931C39.856 64.9309 39.3525 65.0752 39.0828 65.3639C38.8311 65.6345 38.7053 66.1757 38.7053 66.9874V67.5016C38.7053 68.3494 39.4424 68.8365 40.9168 68.9628C42.445 69.0891 43.8025 69.3958 44.9891 69.8828C45.6184 70.1534 46.1398 70.6405 46.5533 71.3441C46.9849 72.0296 47.2006 72.9135 47.2006 73.9959V74.9159C47.2006 76.323 46.8051 77.4144 46.014 78.1902C45.2229 78.9659 44.1261 79.3537 42.7237 79.3537H39.784C38.3816 79.3537 37.2849 78.9659 36.4938 78.1902C35.7027 77.4144 35.3071 76.323 35.3071 74.9159Z" fill="#212529"/>
<path d="M54.3762 62.5226V78.7855C54.3762 79.1643 54.1874 79.3537 53.8098 79.3537H51.5174C51.1398 79.3537 50.951 79.1643 50.951 78.7855V62.5226C50.951 62.1438 51.1398 61.9543 51.5174 61.9543H53.8098C54.1874 61.9543 54.3762 62.1438 54.3762 62.5226Z" fill="#212529"/>
<path d="M65.6656 79.3537H62.7259C61.3055 79.3537 60.2088 78.9749 59.4356 78.2172C58.6625 77.4595 58.276 76.3681 58.276 74.943V66.3651C58.276 64.9399 58.6625 63.8485 59.4356 63.0909C60.2088 62.3332 61.3055 61.9543 62.7259 61.9543H65.6656C67.068 61.9543 68.1557 62.3422 68.9289 63.1179C69.72 63.8756 70.1155 64.958 70.1155 66.3651V67.6369C70.1155 68.0338 69.9177 68.2322 69.5222 68.2322H67.2568C66.8792 68.2322 66.6904 68.0338 66.6904 67.6369V66.5274C66.6904 65.9502 66.5646 65.5443 66.3128 65.3097C66.0791 65.0572 65.6746 64.9309 65.0992 64.9309H63.2653C62.7079 64.9309 62.3034 65.0572 62.0517 65.3097C61.8179 65.5443 61.7011 65.9502 61.7011 66.5274V74.7806C61.7011 75.3579 61.8179 75.7728 62.0517 76.0254C62.3034 76.2599 62.7079 76.3772 63.2653 76.3772H65.0992C65.6746 76.3772 66.0791 76.2599 66.3128 76.0254C66.5646 75.7728 66.6904 75.3579 66.6904 74.7806V73.6712C66.6904 73.2743 66.8792 73.0759 67.2568 73.0759H69.5222C69.9177 73.0759 70.1155 73.2743 70.1155 73.6712V74.943C70.1155 76.3501 69.72 77.4415 68.9289 78.2172C68.1557 78.9749 67.068 79.3537 65.6656 79.3537Z" fill="#212529"/>
<path d="M89.5014 79.3537H80.6285C80.2509 79.3537 80.0622 79.1643 80.0622 78.7855V62.5226C80.0622 62.1438 80.2509 61.9543 80.6285 61.9543H82.9209C83.2985 61.9543 83.4873 62.1438 83.4873 62.5226V76.0524C83.4873 76.2509 83.5951 76.3501 83.8109 76.3501H89.5014C89.861 76.3501 90.0408 76.5485 90.0408 76.9454V78.7855C90.0408 79.1643 89.861 79.3537 89.5014 79.3537Z" fill="#212529"/>
<path d="M94.5236 79.3537H91.9346C91.6109 79.3537 91.5031 79.1643 91.611 78.7855L95.8721 62.5226C95.998 62.1438 96.2677 61.9543 96.6812 61.9543H100.268C100.718 61.9543 100.987 62.1438 101.077 62.5226L105.338 78.7855C105.446 79.1643 105.338 79.3537 105.015 79.3537H102.426C102.228 79.3537 102.093 79.3176 102.021 79.2455C101.949 79.1553 101.895 79.0019 101.859 78.7855L101.104 75.8089H95.8451L95.09 78.7855C95.054 79.0019 94.9911 79.1553 94.9012 79.2455C94.8293 79.3176 94.7034 79.3537 94.5236 79.3537ZM98.4342 65.2286L96.4924 73.0488H100.484L98.5421 65.2286H98.4342Z" fill="#212529"/>
<path d="M111.99 76.4854H115.011C115.604 76.4854 116.027 76.3681 116.278 76.1336C116.548 75.8811 116.683 75.4752 116.683 74.9159V73.3465C116.683 72.7872 116.548 72.3904 116.278 72.1558C116.009 71.9213 115.568 71.8041 114.957 71.8041H111.99C111.792 71.8041 111.693 71.9033 111.693 72.1017V76.1877C111.693 76.3862 111.792 76.4854 111.99 76.4854ZM111.99 69.0169H114.741C115.316 69.0169 115.739 68.8997 116.009 68.6651C116.278 68.4126 116.413 68.0067 116.413 67.4475V66.3921C116.413 65.8329 116.278 65.436 116.009 65.2015C115.757 64.949 115.343 64.8227 114.768 64.8227H111.99C111.792 64.8227 111.693 64.9219 111.693 65.1203V68.7193C111.693 68.9177 111.792 69.0169 111.99 69.0169ZM108.268 78.7855V62.5226C108.268 62.1438 108.457 61.9543 108.835 61.9543H115.307C116.728 61.9543 117.824 62.3332 118.598 63.0909C119.371 63.8485 119.757 64.9309 119.757 66.338V67.4475C119.757 68.9808 119.047 69.973 117.627 70.424C118.346 70.5323 118.921 70.8299 119.353 71.317C119.784 71.786 120 72.4625 120 73.3465V74.9701C120 76.3772 119.613 77.4595 118.84 78.2172C118.067 78.9749 116.979 79.3537 115.577 79.3537H108.835C108.457 79.3537 108.268 79.1643 108.268 78.7855Z" fill="#212529"/>
<path d="M1.84812 54.7245H0.227851C0.0253168 54.7245 -0.0421946 54.6059 0.0253168 54.3689L2.69202 44.1913C2.77078 43.9542 2.93956 43.8357 3.19835 43.8357H5.4431C5.7244 43.8357 5.89318 43.9542 5.94944 44.1913L8.61614 54.3689C8.68365 54.6059 8.61614 54.7245 8.4136 54.7245H6.79333C6.66956 54.7245 6.58517 54.7019 6.54016 54.6568C6.49516 54.6003 6.4614 54.5043 6.4389 54.3689L5.96632 52.5061H2.67514L2.20256 54.3689C2.18005 54.5043 2.14067 54.6003 2.08441 54.6568C2.03941 54.7019 1.96064 54.7245 1.84812 54.7245ZM4.29541 45.8848L3.08021 50.7788H5.57813L4.36292 45.8848H4.29541Z" fill="#212529"/>
<path d="M21.6904 43.8357H24.1883C24.4246 43.8357 24.5428 43.9542 24.5428 44.1913V54.3689C24.5428 54.6059 24.4246 54.7245 24.1883 54.7245H22.8043C22.568 54.7245 22.4499 54.6059 22.4499 54.3689V46.342H22.3824L20.6608 52.015C20.5933 52.2408 20.4527 52.3537 20.2389 52.3537H18.8212C18.6074 52.3537 18.4667 52.2408 18.3992 52.015L16.6439 46.325H16.5764V54.3689C16.5764 54.5043 16.5539 54.6003 16.5089 54.6568C16.4639 54.7019 16.3683 54.7245 16.222 54.7245H14.838C14.6017 54.7245 14.4836 54.6059 14.4836 54.3689V44.1913C14.4836 43.9542 14.6017 43.8357 14.838 43.8357H17.3528C17.5103 43.8357 17.6172 43.9147 17.6735 44.0728L19.4625 50.0506H19.5638L21.3697 44.0728C21.4035 43.9147 21.5104 43.8357 21.6904 43.8357Z" fill="#212529"/>
<path d="M30.8312 51.9473V51.6086C30.8312 51.3715 30.9493 51.2529 31.1856 51.2529H32.6202C32.8565 51.2529 32.9747 51.3715 32.9747 51.6086V51.744C32.9747 52.173 33.0591 52.4666 33.2279 52.6246C33.3966 52.7827 33.7061 52.8617 34.1561 52.8617H34.9494C35.3882 52.8617 35.692 52.777 35.8608 52.6077C36.0408 52.4383 36.1308 52.1222 36.1308 51.6594V51.4562C36.1308 51.1288 35.9958 50.8804 35.7258 50.711C35.467 50.5304 35.1407 50.4232 34.7469 50.3893C34.353 50.3554 33.9255 50.2933 33.4641 50.203C33.0141 50.1014 32.5921 49.9772 32.1983 49.8305C31.8045 49.6724 31.4726 49.3732 31.2025 48.9329C30.9437 48.4814 30.8143 47.9056 30.8143 47.2056V46.6129C30.8143 45.7323 31.0619 45.0493 31.5569 44.5639C32.052 44.0784 32.7384 43.8357 33.616 43.8357H35.3038C36.1927 43.8357 36.8847 44.0784 37.3798 44.5639C37.8749 45.0493 38.1224 45.7323 38.1224 46.6129V46.9347C38.1224 47.1718 38.0043 47.2903 37.768 47.2903H36.3334C36.0971 47.2903 35.9789 47.1718 35.9789 46.9347V46.8331C35.9789 46.3928 35.8946 46.0936 35.7258 45.9356C35.557 45.7775 35.2476 45.6985 34.7975 45.6985H34.1393C33.6779 45.6985 33.3629 45.7888 33.1941 45.9694C33.0366 46.1388 32.9578 46.4775 32.9578 46.9855V47.3072C32.9578 47.8378 33.4191 48.1427 34.3418 48.2217C35.2982 48.3007 36.1477 48.4926 36.8903 48.7975C37.2842 48.9668 37.6105 49.2716 37.8693 49.7119C38.1393 50.1409 38.2743 50.6941 38.2743 51.3715V51.9473C38.2743 52.8278 38.0268 53.5109 37.5317 53.9963C37.0366 54.4818 36.3503 54.7245 35.4726 54.7245H33.6329C32.7553 54.7245 32.0689 54.4818 31.5738 53.9963C31.0787 53.5109 30.8312 52.8278 30.8312 51.9473Z" fill="#212529"/>
<path d="M47.9295 54.7245H46.5118C46.2642 54.7245 46.1405 54.6059 46.1405 54.3689V45.8848C46.1405 45.7606 46.0786 45.6985 45.9548 45.6985H44.0307C43.7944 45.6985 43.6763 45.5799 43.6763 45.3429V44.1913C43.6763 43.9542 43.7944 43.8357 44.0307 43.8357H50.4105C50.6468 43.8357 50.765 43.9542 50.765 44.1913V45.3429C50.765 45.5799 50.6468 45.6985 50.4105 45.6985H48.4865C48.3515 45.6985 48.2839 45.7606 48.2839 45.8848V54.3689C48.2839 54.6059 48.1658 54.7245 47.9295 54.7245Z" fill="#212529"/>
<path d="M62.2986 54.7245H56.7796C56.5433 54.7245 56.4251 54.6059 56.4251 54.3689V44.1913C56.4251 43.9542 56.5433 43.8357 56.7796 43.8357H62.2986C62.5236 43.8357 62.6362 43.9542 62.6362 44.1913V45.3429C62.6362 45.5799 62.5236 45.6985 62.2986 45.6985H58.7711C58.6361 45.6985 58.5686 45.7606 58.5686 45.8848V48.0862C58.5686 48.2104 58.6361 48.2725 58.7711 48.2725H61.6573C61.8935 48.2725 62.0117 48.391 62.0117 48.6281V49.7797C62.0117 50.0167 61.8935 50.1353 61.6573 50.1353H58.7711C58.6361 50.1353 58.5686 50.1974 58.5686 50.3216V52.6754C58.5686 52.7996 58.6361 52.8617 58.7711 52.8617H62.2986C62.5236 52.8617 62.6362 52.9802 62.6362 53.2173V54.3689C62.6362 54.6059 62.5236 54.7245 62.2986 54.7245Z" fill="#212529"/>
<path d="M70.6618 54.7245H69.2272C68.9909 54.7245 68.8728 54.6059 68.8728 54.3689V44.1913C68.8728 43.9542 68.9909 43.8357 69.2272 43.8357H73.2442C74.1218 43.8357 74.8082 44.0784 75.3033 44.5639C75.7983 45.0493 76.0459 45.7323 76.0459 46.6129V47.9338C76.0459 49.2095 75.5452 50.0562 74.5438 50.474V50.5417L76.3497 54.3181C76.4509 54.589 76.3553 54.7245 76.0628 54.7245H74.6957C74.4931 54.7245 74.3468 54.7019 74.2568 54.6568C74.1668 54.6116 74.0937 54.5156 74.0374 54.3689L72.3496 50.711H71.2188C71.0838 50.711 71.0163 50.7731 71.0163 50.8973V54.3689C71.0163 54.6059 70.8981 54.7245 70.6618 54.7245ZM71.2019 48.9837H72.856C73.216 48.9837 73.4804 48.9104 73.6492 48.7636C73.818 48.6055 73.9024 48.3572 73.9024 48.0185V46.6976C73.9024 46.3476 73.818 46.0936 73.6492 45.9356C73.4804 45.7775 73.216 45.6985 72.856 45.6985H71.2019C71.0782 45.6985 71.0163 45.7606 71.0163 45.8848V48.7975C71.0163 48.9216 71.0782 48.9837 71.2019 48.9837Z" fill="#212529"/>
<path d="M84.8034 52.8617H86.6431C87.0031 52.8617 87.2563 52.7883 87.4026 52.6416C87.5601 52.4835 87.6388 52.2238 87.6388 51.8626V46.6976C87.6388 46.3363 87.5601 46.0823 87.4026 45.9356C87.2563 45.7775 87.0031 45.6985 86.6431 45.6985H84.8034C84.6796 45.6985 84.6177 45.7606 84.6177 45.8848V52.6754C84.6177 52.7996 84.6796 52.8617 84.8034 52.8617ZM82.4742 54.3689V44.1913C82.4742 43.9542 82.5924 43.8357 82.8287 43.8357H86.9975C87.8751 43.8357 88.5559 44.0784 89.0397 44.5639C89.5348 45.038 89.7823 45.7154 89.7823 46.596V51.9642C89.7823 52.8448 89.5348 53.5278 89.0397 54.0132C88.5559 54.4874 87.8751 54.7245 86.9975 54.7245H82.8287C82.5924 54.7245 82.4742 54.6059 82.4742 54.3689Z" fill="#212529"/>
<path d="M97.3054 54.7245H95.6851C95.4826 54.7245 95.415 54.6059 95.4826 54.3689L98.1493 44.1913C98.228 43.9542 98.3968 43.8357 98.6556 43.8357H100.9C101.182 43.8357 101.35 43.9542 101.407 44.1913L104.073 54.3689C104.141 54.6059 104.073 54.7245 103.871 54.7245H102.251C102.127 54.7245 102.042 54.7019 101.997 54.6568C101.952 54.6003 101.919 54.5043 101.896 54.3689L101.424 52.5061H98.1324L97.6598 54.3689C97.6373 54.5043 97.5979 54.6003 97.5417 54.6568C97.4966 54.7019 97.4179 54.7245 97.3054 54.7245ZM99.7526 45.8848L98.5374 50.7788H101.035L99.8202 45.8848H99.7526Z" fill="#212529"/>
<path d="M117.148 43.8357H119.646C119.882 43.8357 120 43.9542 120 44.1913V54.3689C120 54.6059 119.882 54.7245 119.646 54.7245H118.262C118.025 54.7245 117.907 54.6059 117.907 54.3689V46.342H117.84L116.118 52.015C116.051 52.2408 115.91 52.3537 115.696 52.3537H114.278C114.065 52.3537 113.924 52.2408 113.856 52.015L112.101 46.325H112.034V54.3689C112.034 54.5043 112.011 54.6003 111.966 54.6568C111.921 54.7019 111.825 54.7245 111.679 54.7245H110.295C110.059 54.7245 109.941 54.6059 109.941 54.3689V44.1913C109.941 43.9542 110.059 43.8357 110.295 43.8357H112.81C112.968 43.8357 113.074 43.9147 113.131 44.0728L114.92 50.0506H115.021L116.827 44.0728C116.861 43.9147 116.968 43.8357 117.148 43.8357Z" fill="#212529"/>
<path d="M44.5101 0C44.0276 0 43.6364 0.392518 43.6364 0.876713V35.6087C43.6364 36.0929 44.0276 36.4854 44.5101 36.4854H46.3989C46.8815 36.4854 47.2727 36.0929 47.2727 35.6087V0.876712C47.2727 0.392517 46.8815 0 46.3989 0H44.5101Z" fill="url(#paint0_linear)"/>
<path d="M7.27274 15.4709C7.27274 14.9867 7.66395 14.5942 8.14653 14.5942H10.0353C10.5179 14.5942 10.9091 14.9867 10.9091 15.4709V35.6087C10.9091 36.0929 10.5179 36.4854 10.0353 36.4854H8.14653C7.66395 36.4854 7.27274 36.0929 7.27274 35.6087V15.4709Z" fill="url(#paint1_linear)"/>
<path d="M0 26.4165C0 25.9323 0.391208 25.5398 0.873786 25.5398H2.76258C3.24516 25.5398 3.63636 25.9323 3.63636 26.4165V35.6087C3.63636 36.0929 3.24516 36.4854 2.76258 36.4854H0.873785C0.391207 36.4854 0 36.0929 0 35.6087V26.4165Z" fill="url(#paint2_linear)"/>
<path d="M36.3636 33.7136C36.3636 33.2294 36.7548 32.8369 37.2374 32.8369H39.1262C39.6088 32.8369 40 33.2294 40 33.7136V35.6087C40 36.0929 39.6088 36.4854 39.1262 36.4854H37.2374C36.7548 36.4854 36.3636 36.0929 36.3636 35.6087V33.7136Z" fill="url(#paint3_linear)"/>
<path d="M80.8738 32.8369C80.3912 32.8369 80 33.2294 80 33.7136V35.6087C80 36.0929 80.3912 36.4854 80.8738 36.4854H82.7626C83.2452 36.4854 83.6364 36.0929 83.6364 35.6087V33.7136C83.6364 33.2294 83.2452 32.8369 82.7626 32.8369H80.8738Z" fill="url(#paint4_linear)"/>
<path d="M14.5454 0.876713C14.5454 0.392518 14.9367 0 15.4192 0H17.308C17.7906 0 18.1818 0.392517 18.1818 0.876712V35.6087C18.1818 36.0929 17.7906 36.4854 17.308 36.4854H15.4192C14.9367 36.4854 14.5454 36.0929 14.5454 35.6087V0.876713Z" fill="url(#paint5_linear)"/>
<path d="M51.7829 7.29709C51.3003 7.29709 50.9091 7.68961 50.9091 8.17381V35.6087C50.9091 36.0929 51.3003 36.4854 51.7829 36.4854H53.6717C54.1543 36.4854 54.5455 36.0929 54.5455 35.6087V8.17381C54.5455 7.68961 54.1543 7.29709 53.6717 7.29709H51.7829Z" fill="url(#paint6_linear)"/>
<path d="M21.8182 15.4709C21.8182 14.9867 22.2094 14.5942 22.692 14.5942H24.5808C25.0633 14.5942 25.4546 14.9867 25.4546 15.4709V35.6087C25.4546 36.0929 25.0633 36.4854 24.5808 36.4854H22.692C22.2094 36.4854 21.8182 36.0929 21.8182 35.6087V15.4709Z" fill="url(#paint7_linear)"/>
<path d="M29.9647 25.5398C29.4821 25.5398 29.0909 25.9323 29.0909 26.4165V35.6087C29.0909 36.0929 29.4821 36.4854 29.9647 36.4854H31.8535C32.3361 36.4854 32.7273 36.0929 32.7273 35.6087V26.4165C32.7273 25.9323 32.3361 25.5398 31.8535 25.5398H29.9647Z" fill="url(#paint8_linear)"/>
<path d="M58.1818 15.4709C58.1818 14.9867 58.573 14.5942 59.0556 14.5942H60.9444C61.427 14.5942 61.8182 14.9867 61.8182 15.4709V35.6087C61.8182 36.0929 61.427 36.4854 60.9444 36.4854H59.0556C58.573 36.4854 58.1818 36.0929 58.1818 35.6087V15.4709Z" fill="url(#paint9_linear)"/>
<path d="M66.3283 7.29709C65.8458 7.29709 65.4546 7.68961 65.4546 8.17381V35.6087C65.4546 36.0929 65.8458 36.4854 66.3283 36.4854H68.2171C68.6997 36.4854 69.0909 36.0929 69.0909 35.6087V8.17381C69.0909 7.68961 68.6997 7.29709 68.2171 7.29709H66.3283Z" fill="url(#paint10_linear)"/>
<path d="M72.7273 0.876713C72.7273 0.392518 73.1185 0 73.6011 0H75.4899C75.9724 0 76.3636 0.392517 76.3636 0.876712V35.6087C76.3636 36.0929 75.9724 36.4854 75.4899 36.4854H73.6011C73.1185 36.4854 72.7273 36.0929 72.7273 35.6087V0.876713Z" fill="url(#paint11_linear)"/>
<path d="M88.1465 0C87.6639 0 87.2727 0.392518 87.2727 0.876713V35.6087C87.2727 36.0929 87.6639 36.4854 88.1465 36.4854H90.0353C90.5179 36.4854 90.9091 36.0929 90.9091 35.6087V0.876712C90.9091 0.392517 90.5179 0 90.0353 0H88.1465Z" fill="url(#paint12_linear)"/>
<path d="M94.5455 0.876713C94.5455 0.392518 94.9367 0 95.4193 0H97.308C97.7906 0 98.1818 0.392517 98.1818 0.876712V35.6087C98.1818 36.0929 97.7906 36.4854 97.308 36.4854H95.4193C94.9367 36.4854 94.5455 36.0929 94.5455 35.6087V0.876713Z" fill="url(#paint13_linear)"/>
<path d="M102.692 25.5398C102.209 25.5398 101.818 25.9323 101.818 26.4165V35.6087C101.818 36.0929 102.209 36.4854 102.692 36.4854H104.581C105.063 36.4854 105.455 36.0929 105.455 35.6087V26.4165C105.455 25.9323 105.063 25.5398 104.581 25.5398H102.692Z" fill="url(#paint14_linear)"/>
<path d="M109.091 26.4165C109.091 25.9323 109.482 25.5398 109.965 25.5398H111.853C112.336 25.5398 112.727 25.9323 112.727 26.4165V35.6087C112.727 36.0929 112.336 36.4854 111.853 36.4854H109.965C109.482 36.4854 109.091 36.0929 109.091 35.6087V26.4165Z" fill="url(#paint15_linear)"/>
<path d="M117.237 25.5398C116.755 25.5398 116.364 25.9323 116.364 26.4165V35.6087C116.364 36.0929 116.755 36.4854 117.237 36.4854H119.126C119.609 36.4854 120 36.0929 120 35.6087V26.4165C120 25.9323 119.609 25.5398 119.126 25.5398H117.237Z" fill="url(#paint16_linear)"/>
<defs>
<linearGradient id="paint0_linear" x1="4.2654" y1="31.3167" x2="116.303" y2="31.3167" gradientUnits="userSpaceOnUse">
<stop stop-color="#D843E2"/>
<stop offset="1" stop-color="#39D7B8"/>
</linearGradient>
<linearGradient id="paint1_linear" x1="4.2654" y1="31.3167" x2="116.303" y2="31.3167" gradientUnits="userSpaceOnUse">
<stop stop-color="#D843E2"/>
<stop offset="1" stop-color="#39D7B8"/>
</linearGradient>
<linearGradient id="paint2_linear" x1="4.2654" y1="31.3167" x2="116.303" y2="31.3167" gradientUnits="userSpaceOnUse">
<stop stop-color="#D843E2"/>
<stop offset="1" stop-color="#39D7B8"/>
</linearGradient>
<linearGradient id="paint3_linear" x1="4.2654" y1="31.3167" x2="116.303" y2="31.3167" gradientUnits="userSpaceOnUse">
<stop stop-color="#D843E2"/>
<stop offset="1" stop-color="#39D7B8"/>
</linearGradient>
<linearGradient id="paint4_linear" x1="4.2654" y1="31.3167" x2="116.303" y2="31.3167" gradientUnits="userSpaceOnUse">
<stop stop-color="#D843E2"/>
<stop offset="1" stop-color="#39D7B8"/>
</linearGradient>
<linearGradient id="paint5_linear" x1="4.2654" y1="31.3167" x2="116.303" y2="31.3167" gradientUnits="userSpaceOnUse">
<stop stop-color="#D843E2"/>
<stop offset="1" stop-color="#39D7B8"/>
</linearGradient>
<linearGradient id="paint6_linear" x1="4.2654" y1="31.3167" x2="116.303" y2="31.3167" gradientUnits="userSpaceOnUse">
<stop stop-color="#D843E2"/>
<stop offset="1" stop-color="#39D7B8"/>
</linearGradient>
<linearGradient id="paint7_linear" x1="4.2654" y1="31.3167" x2="116.303" y2="31.3167" gradientUnits="userSpaceOnUse">
<stop stop-color="#D843E2"/>
<stop offset="1" stop-color="#39D7B8"/>
</linearGradient>
<linearGradient id="paint8_linear" x1="4.2654" y1="31.3167" x2="116.303" y2="31.3167" gradientUnits="userSpaceOnUse">
<stop stop-color="#D843E2"/>
<stop offset="1" stop-color="#39D7B8"/>
</linearGradient>
<linearGradient id="paint9_linear" x1="4.2654" y1="31.3167" x2="116.303" y2="31.3167" gradientUnits="userSpaceOnUse">
<stop stop-color="#D843E2"/>
<stop offset="1" stop-color="#39D7B8"/>
</linearGradient>
<linearGradient id="paint10_linear" x1="4.2654" y1="31.3167" x2="116.303" y2="31.3167" gradientUnits="userSpaceOnUse">
<stop stop-color="#D843E2"/>
<stop offset="1" stop-color="#39D7B8"/>
</linearGradient>
<linearGradient id="paint11_linear" x1="4.2654" y1="31.3167" x2="116.303" y2="31.3167" gradientUnits="userSpaceOnUse">
<stop stop-color="#D843E2"/>
<stop offset="1" stop-color="#39D7B8"/>
</linearGradient>
<linearGradient id="paint12_linear" x1="4.2654" y1="31.3167" x2="116.303" y2="31.3167" gradientUnits="userSpaceOnUse">
<stop stop-color="#D843E2"/>
<stop offset="1" stop-color="#39D7B8"/>
</linearGradient>
<linearGradient id="paint13_linear" x1="4.2654" y1="31.3167" x2="116.303" y2="31.3167" gradientUnits="userSpaceOnUse">
<stop stop-color="#D843E2"/>
<stop offset="1" stop-color="#39D7B8"/>
</linearGradient>
<linearGradient id="paint14_linear" x1="4.2654" y1="31.3167" x2="116.303" y2="31.3167" gradientUnits="userSpaceOnUse">
<stop stop-color="#D843E2"/>
<stop offset="1" stop-color="#39D7B8"/>
</linearGradient>
<linearGradient id="paint15_linear" x1="4.2654" y1="31.3167" x2="116.303" y2="31.3167" gradientUnits="userSpaceOnUse">
<stop stop-color="#D843E2"/>
<stop offset="1" stop-color="#39D7B8"/>
</linearGradient>
<linearGradient id="paint16_linear" x1="4.2654" y1="31.3167" x2="116.303" y2="31.3167" gradientUnits="userSpaceOnUse">
<stop stop-color="#D843E2"/>
<stop offset="1" stop-color="#39D7B8"/>
</linearGradient>
</defs>
</svg>
