<?xml version="1.0" encoding="UTF-8"?>
<svg width="120" height="80" fill="none" version="1.1" viewBox="0 0 120 80" xmlns="http://www.w3.org/2000/svg"><g fill="#fff"><path d="m11.516 61.954h3.9915c0.3776 0 0.5663 0.1895 0.5663 0.5683v16.263c0 0.3788-0.1887 0.5682-0.5663 0.5682h-2.2115c-0.3776 0-0.5664-0.1894-0.5664-0.5682v-12.826h-0.1078l-2.7509 9.065c-0.10788 0.3608-0.33262 0.5412-0.67423 0.5412h-2.2654c-0.34161 0-0.56636-0.1804-0.67424-0.5412l-2.8048-9.0921h-0.10788v12.853c0 0.2164-0.03596 0.3698-0.10788 0.46-0.07191 0.0721-0.22474 0.1082-0.45847 0.1082h-2.2115c-0.37757 0-0.56636-0.1894-0.56636-0.5682v-16.263c0-0.3788 0.18879-0.5683 0.56636-0.5683h4.0184c0.25172 0 0.42252 0.1263 0.51242 0.3789l2.8588 9.552h0.16182l2.8857-9.552c0.0539-0.2526 0.2247-0.3789 0.5124-0.3789z"/><path d="m28.981 61.954h2.2654c0.3956 0 0.5934 0.1804 0.5934 0.5412v12.448c0 1.4071-0.3956 2.4985-1.1867 3.2742-0.7731 0.7577-1.8609 1.1365-3.2633 1.1365h-2.9666c-1.4204 0-2.5172-0.3788-3.2903-1.1365s-1.1597-1.8491-1.1597-3.2742v-12.42c0-0.3788 0.1888-0.5683 0.5664-0.5683h2.2924c0.3776 0 0.5663 0.1895 0.5663 0.5683v12.258c0 0.5773 0.1169 0.9922 0.3506 1.2448 0.2518 0.2345 0.6563 0.3518 1.2137 0.3518h1.8609c0.5753 0 0.9798-0.1173 1.2136-0.3518 0.2517-0.2526 0.3776-0.6675 0.3776-1.2448v-12.258c0-0.3788 0.1887-0.5683 0.5663-0.5683z"/><path d="m35.307 74.916v-0.5412c0-0.3788 0.1888-0.5682 0.5664-0.5682h2.2924c0.3775 0 0.5663 0.1894 0.5663 0.5682v0.2165c0 0.6855 0.1349 1.1546 0.4046 1.4071 0.2697 0.2526 0.7641 0.3789 1.4833 0.3789h1.2675c0.7012 0 1.1867-0.1353 1.4564-0.4059 0.2877-0.2706 0.4315-0.7758 0.4315-1.5154v-0.3247c0-0.5232-0.2157-0.92-0.6473-1.1906-0.4135-0.2887-0.9349-0.46-1.5642-0.5142-0.6293-0.0541-1.3125-0.1533-2.0497-0.2976-0.7191-0.1624-1.3934-0.3608-2.0227-0.5953-0.6292-0.2526-1.1596-0.7306-1.5912-1.4342-0.4135-0.7216-0.6202-1.6416-0.6202-2.7601v-0.9471c0-1.4071 0.3955-2.4985 1.1866-3.2742s1.8879-1.1636 3.2903-1.1636h2.6969c1.4204 0 2.5261 0.3879 3.3172 1.1636s1.1867 1.8671 1.1867 3.2742v0.5142c0 0.3788-0.1888 0.5682-0.5664 0.5682h-2.2924c-0.3775 0-0.5663-0.1894-0.5663-0.5682v-0.1624c0-0.7035-0.1349-1.1816-0.4046-1.4342-0.2697-0.2525-0.7641-0.3788-1.4833-0.3788h-1.0518c-0.7371 0-1.2406 0.1443-1.5103 0.433-0.2517 0.2706-0.3775 0.8118-0.3775 1.6235v0.5142c0 0.8478 0.7371 1.3349 2.2115 1.4612 1.5282 0.1263 2.8857 0.433 4.0723 0.92 0.6293 0.2706 1.1507 0.7577 1.5642 1.4613 0.4316 0.6855 0.6473 1.5694 0.6473 2.6518v0.92c0 1.4071-0.3955 2.4985-1.1866 3.2743-0.7911 0.7757-1.8879 1.1635-3.2903 1.1635h-2.9397c-1.4024 0-2.4991-0.3878-3.2902-1.1635-0.7911-0.7758-1.1867-1.8672-1.1867-3.2743z"/><path d="m54.376 62.523v16.263c0 0.3788-0.1888 0.5682-0.5664 0.5682h-2.2924c-0.3776 0-0.5664-0.1894-0.5664-0.5682v-16.263c0-0.3788 0.1888-0.5683 0.5664-0.5683h2.2924c0.3776 0 0.5664 0.1895 0.5664 0.5683z"/><path d="m65.666 79.354h-2.9397c-1.4204 0-2.5171-0.3788-3.2903-1.1365-0.7731-0.7577-1.1596-1.8491-1.1596-3.2742v-8.5779c0-1.4252 0.3865-2.5166 1.1596-3.2742 0.7732-0.7577 1.8699-1.1366 3.2903-1.1366h2.9397c1.4024 0 2.4901 0.3879 3.2633 1.1636 0.7911 0.7577 1.1866 1.8401 1.1866 3.2472v1.2718c0 0.3969-0.1978 0.5953-0.5933 0.5953h-2.2654c-0.3776 0-0.5664-0.1984-0.5664-0.5953v-1.1095c0-0.5772-0.1258-0.9831-0.3776-1.2177-0.2337-0.2525-0.6382-0.3788-1.2136-0.3788h-1.8339c-0.5574 0-0.9619 0.1263-1.2136 0.3788-0.2338 0.2346-0.3506 0.6405-0.3506 1.2177v8.2532c0 0.5773 0.1168 0.9922 0.3506 1.2448 0.2517 0.2345 0.6562 0.3518 1.2136 0.3518h1.8339c0.5754 0 0.9799-0.1173 1.2136-0.3518 0.2518-0.2526 0.3776-0.6675 0.3776-1.2448v-1.1094c0-0.3969 0.1888-0.5953 0.5664-0.5953h2.2654c0.3955 0 0.5933 0.1984 0.5933 0.5953v1.2718c0 1.4071-0.3955 2.4985-1.1866 3.2742-0.7732 0.7577-1.8609 1.1365-3.2633 1.1365z"/><path d="m89.501 79.354h-8.8729c-0.3776 0-0.5663-0.1894-0.5663-0.5682v-16.263c0-0.3788 0.1887-0.5683 0.5663-0.5683h2.2924c0.3776 0 0.5664 0.1895 0.5664 0.5683v13.53c0 0.1985 0.1078 0.2977 0.3236 0.2977h5.6905c0.3596 0 0.5394 0.1984 0.5394 0.5953v1.8401c0 0.3788-0.1798 0.5682-0.5394 0.5682z"/><path d="m94.524 79.354h-2.589c-0.3237 0-0.4315-0.1894-0.3236-0.5682l4.2611-16.263c0.1259-0.3788 0.3956-0.5683 0.8091-0.5683h3.5868c0.45 0 0.719 0.1895 0.809 0.5683l4.261 16.263c0.108 0.3788 0 0.5682-0.323 0.5682h-2.589c-0.198 0-0.333-0.0361-0.405-0.1082-0.072-0.0902-0.126-0.2436-0.162-0.46l-0.755-2.9766h-5.2589l-0.7551 2.9766c-0.036 0.2164-0.0989 0.3698-0.1888 0.46-0.0719 0.0721-0.1978 0.1082-0.3776 0.1082zm3.9106-14.125-1.9418 7.8202h3.9916l-1.9419-7.8202h-0.1079z"/><path d="m111.99 76.485h3.021c0.593 0 1.016-0.1173 1.267-0.3518 0.27-0.2525 0.405-0.6584 0.405-1.2177v-1.5694c0-0.5593-0.135-0.9561-0.405-1.1907-0.269-0.2345-0.71-0.3517-1.321-0.3517h-2.967c-0.198 0-0.297 0.0992-0.297 0.2976v4.086c0 0.1985 0.099 0.2977 0.297 0.2977zm0-7.4685h2.751c0.575 0 0.998-0.1172 1.268-0.3518 0.269-0.2525 0.404-0.6584 0.404-1.2176v-1.0554c0-0.5592-0.135-0.9561-0.404-1.1906-0.252-0.2525-0.666-0.3788-1.241-0.3788h-2.778c-0.198 0-0.297 0.0992-0.297 0.2976v3.599c0 0.1984 0.099 0.2976 0.297 0.2976zm-3.722 9.7686v-16.263c0-0.3788 0.189-0.5683 0.567-0.5683h6.472c1.421 0 2.517 0.3789 3.291 1.1366 0.773 0.7576 1.159 1.84 1.159 3.2471v1.1095c0 1.5333-0.71 2.5255-2.13 2.9765 0.719 0.1083 1.294 0.4059 1.726 0.893 0.431 0.469 0.647 1.1455 0.647 2.0295v1.6236c0 1.4071-0.387 2.4894-1.16 3.2471s-1.861 1.1365-3.263 1.1365h-6.742c-0.378 0-0.567-0.1894-0.567-0.5682z"/><path d="m1.8481 54.724h-1.6203c-0.20253 0-0.27005-0.1186-0.20253-0.3556l2.6667-10.178c0.07876-0.2371 0.24754-0.3556 0.50633-0.3556h2.2448c0.2813 0 0.45008 0.1185 0.50634 0.3556l2.6667 10.178c0.06751 0.237 0 0.3556-0.20254 0.3556h-1.6203c-0.12377 0-0.20816-0.0226-0.25317-0.0677-0.045-0.0565-0.07876-0.1525-0.10126-0.2879l-0.47258-1.8628h-3.2912l-0.47258 1.8628c-0.02251 0.1354-0.06189 0.2314-0.11815 0.2879-0.045 0.0451-0.12377 0.0677-0.23629 0.0677zm2.4473-8.8397-1.2152 4.894h2.4979l-1.2152-4.894h-0.06751z"/><path d="m21.69 43.836h2.4979c0.2363 0 0.3545 0.1185 0.3545 0.3556v10.178c0 0.237-0.1182 0.3556-0.3545 0.3556h-1.384c-0.2363 0-0.3544-0.1186-0.3544-0.3556v-8.0269h-0.0675l-1.7216 5.673c-0.0675 0.2258-0.2081 0.3387-0.4219 0.3387h-1.4177c-0.2138 0-0.3545-0.1129-0.422-0.3387l-1.7553-5.69h-0.0675v8.0439c0 0.1354-0.0225 0.2314-0.0675 0.2879-0.045 0.0451-0.1406 0.0677-0.2869 0.0677h-1.384c-0.2363 0-0.3544-0.1186-0.3544-0.3556v-10.178c0-0.2371 0.1181-0.3556 0.3544-0.3556h2.5148c0.1575 0 0.2644 0.079 0.3207 0.2371l1.789 5.9778h0.1013l1.8059-5.9778c0.0338-0.1581 0.1407-0.2371 0.3207-0.2371z"/><path d="m30.831 51.947v-0.3387c0-0.2371 0.1181-0.3557 0.3544-0.3557h1.4346c0.2363 0 0.3545 0.1186 0.3545 0.3557v0.1354c0 0.429 0.0844 0.7226 0.2532 0.8806 0.1687 0.1581 0.4782 0.2371 0.9282 0.2371h0.7933c0.4388 0 0.7426-0.0847 0.9114-0.254 0.18-0.1694 0.27-0.4855 0.27-0.9483v-0.2032c0-0.3274-0.135-0.5758-0.405-0.7452-0.2588-0.1806-0.5851-0.2878-0.9789-0.3217-0.3939-0.0339-0.8214-0.096-1.2828-0.1863-0.45-0.1016-0.872-0.2258-1.2658-0.3725-0.3938-0.1581-0.7257-0.4573-0.9958-0.8976-0.2588-0.4515-0.3882-1.0273-0.3882-1.7273v-0.5927c0-0.8806 0.2476-1.5636 0.7426-2.049 0.4951-0.4855 1.1815-0.7282 2.0591-0.7282h1.6878c0.8889 0 1.5809 0.2427 2.076 0.7282 0.4951 0.4854 0.7426 1.1684 0.7426 2.049v0.3218c0 0.2371-0.1181 0.3556-0.3544 0.3556h-1.4346c-0.2363 0-0.3545-0.1185-0.3545-0.3556v-0.1016c0-0.4403-0.0843-0.7395-0.2531-0.8975-0.1688-0.1581-0.4782-0.2371-0.9283-0.2371h-0.6582c-0.4614 0-0.7764 0.0903-0.9452 0.2709-0.1575 0.1694-0.2363 0.5081-0.2363 1.0161v0.3217c0 0.5306 0.4613 0.8355 1.384 0.9145 0.9564 0.079 1.8059 0.2709 2.5485 0.5758 0.3939 0.1693 0.7202 0.4741 0.979 0.9144 0.27 0.429 0.405 0.9822 0.405 1.6596v0.5758c0 0.8805-0.2475 1.5636-0.7426 2.049-0.4951 0.4855-1.1814 0.7282-2.0591 0.7282h-1.8397c-0.8776 0-1.564-0.2427-2.0591-0.7282-0.4951-0.4854-0.7426-1.1685-0.7426-2.049z"/><path d="m47.93 54.724h-1.4177c-0.2476 0-0.3713-0.1186-0.3713-0.3556v-8.4841c0-0.1242-0.0619-0.1863-0.1857-0.1863h-1.9241c-0.2363 0-0.3544-0.1186-0.3544-0.3556v-1.1516c0-0.2371 0.1181-0.3556 0.3544-0.3556h6.3798c0.2363 0 0.3545 0.1185 0.3545 0.3556v1.1516c0 0.237-0.1182 0.3556-0.3545 0.3556h-1.924c-0.135 0-0.2026 0.0621-0.2026 0.1863v8.4841c0 0.237-0.1181 0.3556-0.3544 0.3556z"/><path d="m62.299 54.724h-5.519c-0.2363 0-0.3545-0.1186-0.3545-0.3556v-10.178c0-0.2371 0.1182-0.3556 0.3545-0.3556h5.519c0.225 0 0.3376 0.1185 0.3376 0.3556v1.1516c0 0.237-0.1126 0.3556-0.3376 0.3556h-3.5275c-0.135 0-0.2025 0.0621-0.2025 0.1863v2.2014c0 0.1242 0.0675 0.1863 0.2025 0.1863h2.8862c0.2362 0 0.3544 0.1185 0.3544 0.3556v1.1516c0 0.237-0.1182 0.3556-0.3544 0.3556h-2.8862c-0.135 0-0.2025 0.0621-0.2025 0.1863v2.3538c0 0.1242 0.0675 0.1863 0.2025 0.1863h3.5275c0.225 0 0.3376 0.1185 0.3376 0.3556v1.1516c0 0.237-0.1126 0.3556-0.3376 0.3556z"/><path d="m70.662 54.724h-1.4346c-0.2363 0-0.3544-0.1186-0.3544-0.3556v-10.178c0-0.2371 0.1181-0.3556 0.3544-0.3556h4.017c0.8776 0 1.564 0.2427 2.0591 0.7282 0.495 0.4854 0.7426 1.1684 0.7426 2.049v1.3209c0 1.2757-0.5007 2.1224-1.5021 2.5402v0.0677l1.8059 3.7764c0.1012 0.2709 0.0056 0.4064-0.2869 0.4064h-1.3671c-0.2026 0-0.3489-0.0226-0.4389-0.0677-0.09-0.0452-0.1631-0.1412-0.2194-0.2879l-1.6878-3.6579h-1.1308c-0.135 0-0.2025 0.0621-0.2025 0.1863v3.4716c0 0.237-0.1182 0.3556-0.3545 0.3556zm0.5401-5.7408h1.6541c0.36 0 0.6244-0.0733 0.7932-0.2201 0.1688-0.1581 0.2532-0.4064 0.2532-0.7451v-1.3209c0-0.35-0.0844-0.604-0.2532-0.762-0.1688-0.1581-0.4332-0.2371-0.7932-0.2371h-1.6541c-0.1237 0-0.1856 0.0621-0.1856 0.1863v2.9127c0 0.1241 0.0619 0.1862 0.1856 0.1862z"/><path d="m84.803 52.862h1.8397c0.36 0 0.6132-0.0734 0.7595-0.2201 0.1575-0.1581 0.2362-0.4178 0.2362-0.779v-5.165c0-0.3613-0.0787-0.6153-0.2362-0.762-0.1463-0.1581-0.3995-0.2371-0.7595-0.2371h-1.8397c-0.1238 0-0.1857 0.0621-0.1857 0.1863v6.7906c0 0.1242 0.0619 0.1863 0.1857 0.1863zm-2.3292 1.5072v-10.178c0-0.2371 0.1182-0.3556 0.3545-0.3556h4.1688c0.8776 0 1.5584 0.2427 2.0422 0.7282 0.4951 0.4741 0.7426 1.1515 0.7426 2.0321v5.3682c0 0.8806-0.2475 1.5636-0.7426 2.049-0.4838 0.4742-1.1646 0.7113-2.0422 0.7113h-4.1688c-0.2363 0-0.3545-0.1186-0.3545-0.3556z"/><path d="m97.305 54.724h-1.6203c-0.2025 0-0.2701-0.1186-0.2025-0.3556l2.6667-10.178c0.0787-0.2371 0.2475-0.3556 0.5063-0.3556h2.2444c0.282 0 0.45 0.1185 0.507 0.3556l2.666 10.178c0.068 0.237 0 0.3556-0.202 0.3556h-1.62c-0.124 0-0.209-0.0226-0.254-0.0677-0.045-0.0565-0.078-0.1525-0.101-0.2879l-0.472-1.8628h-3.2916l-0.4726 1.8628c-0.0225 0.1354-0.0619 0.2314-0.1181 0.2879-0.0451 0.0451-0.1238 0.0677-0.2363 0.0677zm2.4472-8.8397-1.2152 4.894h2.4976l-1.2148-4.894h-0.0676z"/><path d="m117.15 43.836h2.498c0.236 0 0.354 0.1185 0.354 0.3556v10.178c0 0.237-0.118 0.3556-0.354 0.3556h-1.384c-0.237 0-0.355-0.1186-0.355-0.3556v-8.0269h-0.067l-1.722 5.673c-0.067 0.2258-0.208 0.3387-0.422 0.3387h-1.418c-0.213 0-0.354-0.1129-0.422-0.3387l-1.755-5.69h-0.067v8.0439c0 0.1354-0.023 0.2314-0.068 0.2879-0.045 0.0451-0.141 0.0677-0.287 0.0677h-1.384c-0.236 0-0.354-0.1186-0.354-0.3556v-10.178c0-0.2371 0.118-0.3556 0.354-0.3556h2.515c0.158 0 0.264 0.079 0.321 0.2371l1.789 5.9778h0.101l1.806-5.9778c0.034-0.1581 0.141-0.2371 0.321-0.2371z"/><path d="m44.51 0c-0.4825 0-0.8737 0.39252-0.8737 0.87671v34.732c0 0.4842 0.3912 0.8767 0.8737 0.8767h1.8888c0.4826 0 0.8738-0.3925 0.8738-0.8767v-34.732c0-0.4842-0.3912-0.87671-0.8738-0.87671h-1.8888z"/><path d="m7.2727 15.471c0-0.4842 0.39121-0.8767 0.87379-0.8767h1.8888c0.4826 0 0.8738 0.3925 0.8738 0.8767v20.138c0 0.4842-0.3912 0.8767-0.8738 0.8767h-1.8888c-0.48258 0-0.87379-0.3925-0.87379-0.8767v-20.138z"/><path d="m0 26.416c0-0.4842 0.39121-0.8767 0.87379-0.8767h1.8888c0.48258 0 0.87378 0.3925 0.87378 0.8767v9.1922c0 0.4842-0.3912 0.8767-0.87378 0.8767h-1.8888c-0.48258 0-0.87378-0.3925-0.87378-0.8767v-9.1922z"/><path d="m36.364 33.714c0-0.4842 0.3912-0.8767 0.8738-0.8767h1.8888c0.4826 0 0.8738 0.3925 0.8738 0.8767v1.8951c0 0.4842-0.3912 0.8767-0.8738 0.8767h-1.8888c-0.4826 0-0.8738-0.3925-0.8738-0.8767v-1.8951z"/><path d="m80.874 32.837c-0.4826 0-0.8738 0.3925-0.8738 0.8767v1.8951c0 0.4842 0.3912 0.8767 0.8738 0.8767h1.8888c0.4826 0 0.8738-0.3925 0.8738-0.8767v-1.8951c0-0.4842-0.3912-0.8767-0.8738-0.8767h-1.8888z"/><path d="m14.545 0.87671c0-0.4842 0.3913-0.87671 0.8738-0.87671h1.8888c0.4826 0 0.8738 0.39252 0.8738 0.87671v34.732c0 0.4842-0.3912 0.8767-0.8738 0.8767h-1.8888c-0.4825 0-0.8738-0.3925-0.8738-0.8767v-34.732z"/><path d="m51.783 7.2971c-0.4826 0-0.8738 0.39252-0.8738 0.87672v27.435c0 0.4842 0.3912 0.8767 0.8738 0.8767h1.8888c0.4826 0 0.8738-0.3925 0.8738-0.8767v-27.435c0-0.4842-0.3912-0.87672-0.8738-0.87672h-1.8888z"/><path d="m21.818 15.471c0-0.4842 0.3912-0.8767 0.8738-0.8767h1.8888c0.4825 0 0.8738 0.3925 0.8738 0.8767v20.138c0 0.4842-0.3913 0.8767-0.8738 0.8767h-1.8888c-0.4826 0-0.8738-0.3925-0.8738-0.8767v-20.138z"/><path d="m29.965 25.54c-0.4826 0-0.8738 0.3925-0.8738 0.8767v9.1922c0 0.4842 0.3912 0.8767 0.8738 0.8767h1.8888c0.4826 0 0.8738-0.3925 0.8738-0.8767v-9.1922c0-0.4842-0.3912-0.8767-0.8738-0.8767h-1.8888z"/><path d="m58.182 15.471c0-0.4842 0.3912-0.8767 0.8738-0.8767h1.8888c0.4826 0 0.8738 0.3925 0.8738 0.8767v20.138c0 0.4842-0.3912 0.8767-0.8738 0.8767h-1.8888c-0.4826 0-0.8738-0.3925-0.8738-0.8767v-20.138z"/><path d="m66.328 7.2971c-0.4825 0-0.8737 0.39252-0.8737 0.87672v27.435c0 0.4842 0.3912 0.8767 0.8737 0.8767h1.8888c0.4826 0 0.8738-0.3925 0.8738-0.8767v-27.435c0-0.4842-0.3912-0.87672-0.8738-0.87672h-1.8888z"/><path d="m72.727 0.87671c0-0.4842 0.3912-0.87671 0.8738-0.87671h1.8888c0.4825 0 0.8737 0.39252 0.8737 0.87671v34.732c0 0.4842-0.3912 0.8767-0.8737 0.8767h-1.8888c-0.4826 0-0.8738-0.3925-0.8738-0.8767v-34.732z"/><path d="m88.146 0c-0.4826 0-0.8738 0.39252-0.8738 0.87671v34.732c0 0.4842 0.3912 0.8767 0.8738 0.8767h1.8888c0.4826 0 0.8738-0.3925 0.8738-0.8767v-34.732c0-0.4842-0.3912-0.87671-0.8738-0.87671h-1.8888z"/><path d="m94.546 0.87671c0-0.4842 0.3912-0.87671 0.8738-0.87671h1.8887c0.4826 0 0.8738 0.39252 0.8738 0.87671v34.732c0 0.4842-0.3912 0.8767-0.8738 0.8767h-1.8887c-0.4826 0-0.8738-0.3925-0.8738-0.8767v-34.732z"/><path d="m102.69 25.54c-0.483 0-0.874 0.3925-0.874 0.8767v9.1922c0 0.4842 0.391 0.8767 0.874 0.8767h1.889c0.482 0 0.874-0.3925 0.874-0.8767v-9.1922c0-0.4842-0.392-0.8767-0.874-0.8767h-1.889z"/><path d="m109.09 26.416c0-0.4842 0.391-0.8767 0.874-0.8767h1.888c0.483 0 0.874 0.3925 0.874 0.8767v9.1922c0 0.4842-0.391 0.8767-0.874 0.8767h-1.888c-0.483 0-0.874-0.3925-0.874-0.8767v-9.1922z"/><path d="m117.24 25.54c-0.482 0-0.873 0.3925-0.873 0.8767v9.1922c0 0.4842 0.391 0.8767 0.873 0.8767h1.889c0.483 0 0.874-0.3925 0.874-0.8767v-9.1922c0-0.4842-0.391-0.8767-0.874-0.8767h-1.889z"/></g></svg>
