<svg width="350" height="67" viewBox="0 0 350 67" fill="none" xmlns="http://www.w3.org/2000/svg">
<path d="M335.2 38.2094H330.378C329.584 38.2094 329.187 37.8123 329.187 37.0181V10.4696C329.187 9.67541 329.584 9.27832 330.378 9.27832H335.2C335.994 9.27832 336.391 9.67541 336.391 10.4696V12.3983H336.618C337.034 11.3772 337.772 10.602 338.83 10.0725C339.889 9.54305 341.005 9.27832 342.177 9.27832H344.22C344.976 9.27832 345.354 9.67541 345.354 10.4696V14.3838C345.354 14.8376 345.26 15.1591 345.07 15.3482C344.919 15.4994 344.636 15.5562 344.22 15.5184H340.305C337.696 15.5184 336.391 16.9933 336.391 19.9431V37.0181C336.391 37.8123 335.994 38.2094 335.2 38.2094Z" fill="#A5ADB5"/>
<path d="M322.875 40.6089L310.343 40.9501C307.356 41.0314 305.028 40.3002 303.36 38.7567C301.691 37.2132 300.816 34.9481 300.734 31.9616L300.45 21.5276C300.369 18.541 301.12 16.2318 302.702 14.5997C304.284 12.9677 306.569 12.111 309.555 12.0297L314.035 11.9078C317.022 11.8265 319.349 12.5576 321.018 14.1011C322.687 15.6446 323.562 17.9097 323.643 20.8962L323.839 28.0979C323.861 28.8918 323.475 29.2996 322.681 29.3212L308.448 29.7087C307.994 29.721 307.773 29.9351 307.784 30.351L307.818 31.5985C307.85 32.7704 308.119 33.6144 308.625 34.1302C309.167 34.6073 310.044 34.8293 311.253 34.7964L322.708 34.4846C323.502 34.463 323.91 34.868 323.933 35.6997L324.035 39.4423C324.046 39.8582 323.96 40.1632 323.776 40.3574C323.629 40.5127 323.328 40.5965 322.875 40.6089ZM308.316 24.8886L316.028 24.6787C316.444 24.6674 316.647 24.4538 316.635 24.0379L316.561 21.316C316.528 20.1063 316.259 19.2624 315.755 18.7843C315.25 18.3062 314.392 18.0836 313.183 18.1166L310.801 18.1814C309.591 18.2143 308.747 18.4832 308.269 18.988C307.791 19.4929 307.569 20.3502 307.602 21.5599L307.676 24.2818C307.687 24.6977 307.901 24.8999 308.316 24.8886Z" fill="#A5ADB5"/>
<path d="M282.118 37.3416L280.246 37.3787C277.335 37.4363 275.107 36.686 273.563 35.1279C272.057 33.569 271.274 31.2961 271.215 28.309L271.035 19.1776C270.975 16.1906 271.743 13.8869 273.338 12.2667C274.932 10.6464 277.223 9.80676 280.21 9.74763L293.311 9.48832C294.143 9.47185 294.567 9.86064 294.583 10.6547L295.136 38.6159C295.194 41.5651 294.407 43.8503 292.775 45.4712C291.181 47.0915 288.909 47.9308 285.96 47.9892L275.07 48.2047C274.616 48.2137 274.293 48.1255 274.1 47.9402C273.946 47.792 273.865 47.5099 273.857 47.094L273.779 43.1805C273.763 42.3865 274.153 41.9816 274.947 41.9659L284.645 41.7739C285.855 41.75 286.701 41.4685 287.182 40.9294C287.701 40.4274 287.95 39.5903 287.926 38.4181L287.841 34.1077L287.614 34.1122C287.218 35.1413 286.496 35.931 285.448 36.4813C284.4 37.0317 283.29 37.3184 282.118 37.3416ZM287.694 26.6778L287.492 16.4689C287.484 16.053 287.253 15.8495 286.799 15.8585L281.468 15.964C280.258 15.9879 279.412 16.2695 278.931 16.8085C278.449 17.3098 278.22 18.1654 278.244 19.3754L278.412 27.8261C278.435 29.0361 278.698 29.882 279.199 30.3638C279.701 30.8456 280.556 31.0745 281.766 31.0506L283.865 31.009C286.474 30.9574 287.75 29.5137 287.694 26.6778Z" fill="#A5ADB5"/>
<path d="M257.079 40.8269L252.032 40.9532C249.045 41.0279 246.719 40.2917 245.054 38.7445C243.388 37.1972 242.518 34.9303 242.444 31.9436L242.183 21.509C242.108 18.5222 242.864 16.2146 244.45 14.5861C246.035 12.9575 248.322 12.1059 251.309 12.0312L256.356 11.9049C259.305 11.8311 261.612 12.5868 263.279 14.1718C264.982 15.718 265.87 17.9656 265.944 20.9145L266.205 31.3491C266.279 34.298 265.504 36.6061 263.882 38.2734C262.296 39.902 260.028 40.7531 257.079 40.8269ZM252.955 34.7449L255.847 34.6725C257.057 34.6422 257.901 34.3752 258.381 33.8714C258.898 33.3667 259.141 32.5094 259.111 31.2996L258.861 21.3187C258.831 20.1089 258.545 19.2649 258.003 18.7866C257.499 18.3074 256.643 18.083 255.433 18.1132L252.541 18.1856C251.331 18.2159 250.486 18.4829 250.007 18.9867C249.528 19.4904 249.304 20.3472 249.334 21.557L249.583 31.538C249.614 32.7478 249.881 33.5923 250.385 34.0715C250.888 34.5507 251.745 34.7751 252.955 34.7449Z" fill="#A5ADB5"/>
<path d="M215.66 41.3226L210.435 41.2C209.575 41.1798 209.155 40.7394 209.175 39.8789L210.042 2.93882C210.062 2.07832 210.502 1.65817 211.363 1.67837L216.587 1.80099C217.448 1.82119 217.868 2.26154 217.848 3.12204L217.509 17.5662C217.498 18.0169 217.739 18.2481 218.23 18.2596L228.618 18.5034C229.069 18.514 229.299 18.2939 229.31 17.8432L229.649 3.39902C229.669 2.53852 230.109 2.11837 230.97 2.13857L236.194 2.26119C237.055 2.28139 237.475 2.72173 237.455 3.58223L236.588 40.5223C236.568 41.3828 236.127 41.803 235.267 41.7828L230.042 41.6602C229.182 41.64 228.762 41.1996 228.782 40.3391L229.119 25.9565C229.13 25.5057 228.91 25.2751 228.459 25.2645L218.072 25.0207C217.58 25.0091 217.329 25.2287 217.318 25.6795L216.981 40.0621C216.96 40.9226 216.52 41.3428 215.66 41.3226Z" fill="#A5ADB5"/>
<path d="M195.033 48.9711L180.835 49.7382C177.452 49.921 174.791 49.1627 172.852 47.4634C170.913 45.764 169.852 43.2226 169.669 39.839L169.031 28.018C168.848 24.6345 169.629 21.9935 171.373 20.0952C173.118 18.1968 175.682 17.1562 179.065 16.9734L184.141 16.6992C187.524 16.5164 190.185 17.2747 192.124 18.9741C194.063 20.6734 195.124 23.2149 195.307 26.5984L195.747 34.7575C195.796 35.6569 195.371 36.1309 194.471 36.1795L178.346 37.0507C177.832 37.0785 177.588 37.3279 177.613 37.799L177.689 39.2124C177.761 40.5401 178.092 41.4888 178.681 42.0583C179.31 42.5827 180.311 42.8079 181.681 42.7338L194.659 42.0327C195.558 41.9841 196.033 42.4309 196.084 43.3732L196.313 47.6133C196.339 48.0845 196.25 48.4329 196.047 48.6586C195.885 48.8392 195.547 48.9434 195.033 48.9711ZM178.051 31.5899L186.788 31.1179C187.259 31.0924 187.482 30.8441 187.457 30.373L187.29 27.2893C187.216 25.9187 186.885 24.9701 186.299 24.4434C185.712 23.9167 184.733 23.6903 183.362 23.7644L180.664 23.9102C179.294 23.9842 178.345 24.3147 177.818 24.9015C177.292 25.4884 177.065 26.4671 177.139 27.8377L177.306 30.9214C177.331 31.3925 177.58 31.6154 178.051 31.5899Z" fill="white"/>
<path d="M155.177 16.4407L155.384 10.8471C155.415 9.98986 155.86 9.57706 156.717 9.60871L162.311 9.81522C163.168 9.84687 163.581 10.2699 163.551 11.0843L163.342 16.7422C163.311 17.5995 162.866 18.0123 162.009 17.9806L156.415 17.7741C155.558 17.7424 155.145 17.298 155.177 16.4407ZM150.861 65.3405L146.553 65.1815C145.653 65.1483 145.219 64.6816 145.253 63.7815L145.414 59.4094C145.447 58.5093 145.914 58.0759 146.814 58.1091L148.614 58.1756C150.543 58.2468 151.863 57.9521 152.574 57.2917C153.328 56.6327 153.741 55.3389 153.812 53.41L154.923 23.3202C154.956 22.4201 155.423 21.9867 156.323 22.0199L161.788 22.2217C162.688 22.2549 163.122 22.7216 163.088 23.6217L161.923 55.1903C161.799 58.5336 160.761 61.092 158.807 62.8655C156.853 64.6389 154.204 65.464 150.861 65.3405Z" fill="white"/>
<path d="M132.104 23.8895H129.53C129.016 23.8895 128.651 23.8037 128.437 23.6322C128.265 23.4606 128.179 23.1175 128.179 22.6028V18.1634C128.179 17.2627 128.63 16.8123 129.53 16.8123H132.104C132.576 16.8123 132.812 16.5764 132.812 16.1046V9.99246C132.812 9.09172 133.283 8.64136 134.227 8.64136H139.632C140.532 8.64136 140.983 9.09172 140.983 9.99246V16.1046C140.983 16.5764 141.24 16.8123 141.755 16.8123H146.773C147.674 16.8123 148.124 17.2627 148.124 18.1634V22.6028C148.124 23.0746 148.017 23.4177 147.802 23.6322C147.631 23.8037 147.288 23.8895 146.773 23.8895H141.755C141.24 23.8895 140.983 24.1254 140.983 24.5972V38.816C140.983 40.1457 141.283 41.1107 141.883 41.7112C142.484 42.2688 143.47 42.5476 144.843 42.5476H147.416C148.317 42.5476 148.768 42.998 148.768 43.8987V48.3381C148.768 48.8099 148.66 49.153 148.446 49.3675C148.274 49.539 147.931 49.6248 147.416 49.6248H143.492C140.103 49.6248 137.465 48.7241 135.578 46.9226C133.734 45.1212 132.812 42.5476 132.812 39.202V24.5972C132.812 24.1254 132.576 23.8895 132.104 23.8895Z" fill="white"/>
<path d="M104.186 54.6251L98.719 54.5071C97.8185 54.4877 97.3779 54.0277 97.3974 53.1272L98.0471 23.0239C98.0666 22.1234 98.5266 21.6828 99.4271 21.7023L104.895 21.8203C105.795 21.8397 106.236 22.2997 106.216 23.2002L106.17 25.3229L106.428 25.3284C107.421 23.0332 109.547 21.9207 112.806 21.991L114.865 22.0355C121.597 22.1808 124.888 25.7483 124.737 32.7381L124.284 53.7075C124.265 54.6081 123.784 55.0481 122.84 55.0278L117.437 54.9111C116.537 54.8917 116.096 54.4317 116.115 53.5312L116.56 32.9478C116.589 31.5755 116.31 30.6042 115.722 30.0338C115.177 29.4214 114.219 29.1004 112.847 29.0708L110.531 29.0208C107.572 28.9569 106.057 30.5545 105.987 33.8136L105.566 53.3035C105.547 54.204 105.087 54.6446 104.186 54.6251Z" fill="white"/>
<path d="M81.1085 52.1185L75.3844 52.2673C71.997 52.3554 69.3581 51.523 67.4675 49.77C65.5769 48.0171 64.5876 45.447 64.4996 42.0597L64.1919 30.2254C64.1038 26.8381 64.9582 24.22 66.7551 22.3712C68.5521 20.5224 71.1442 19.554 74.5315 19.4659L80.2557 19.3171C83.6002 19.2301 86.2182 20.0846 88.1099 21.8804C90.0433 23.6322 91.0535 26.1803 91.1405 29.5248L91.4482 41.359C91.5351 44.7035 90.6593 47.3221 88.8206 49.2149C87.0237 51.0637 84.453 52.0316 81.1085 52.1185ZM76.4241 45.2251L79.7042 45.1398C81.0763 45.1041 82.0338 44.8003 82.5767 44.2284C83.1625 43.6554 83.4376 42.6829 83.4019 41.3108L83.1076 29.9911C83.0719 28.619 82.7467 27.662 82.1319 27.1202C81.56 26.5773 80.588 26.3237 79.216 26.3594L75.9358 26.4446C74.5637 26.4803 73.6062 26.7841 73.0633 27.356C72.5204 27.9279 72.2668 28.8999 72.3024 30.272L72.5968 41.5917C72.6324 42.9638 72.9362 43.9213 73.5081 44.4642C74.08 45.0071 75.052 45.2607 76.4241 45.2251Z" fill="white"/>
<path d="M48.441 54.6784L42.7175 54.8507C39.3306 54.9527 36.6882 54.1311 34.7905 52.386C32.8927 50.6408 31.8929 48.0748 31.7909 44.6878L31.4346 32.8549C31.3327 29.468 32.1763 26.8464 33.9656 24.9903C35.7549 23.1341 38.3431 22.1551 41.73 22.0531L47.4535 21.8807C50.7976 21.7801 53.4192 22.6237 55.3182 24.4118C57.2588 26.1556 58.2795 28.6996 58.3801 32.0437L58.7364 43.8765C58.8371 47.2206 57.972 49.8428 56.1411 51.7431C54.3518 53.5993 51.7851 54.5777 48.441 54.6784ZM43.7283 47.8042L47.0081 47.7055C48.38 47.6642 49.3363 47.3565 49.8768 46.7823C50.4603 46.2069 50.7313 45.2333 50.69 43.8613L50.3493 32.5429C50.3079 31.171 49.9788 30.2154 49.3618 29.6761C48.7877 29.1356 47.8146 28.8859 46.4427 28.9272L43.1629 29.026C41.791 29.0673 40.8348 29.375 40.2942 29.9491C39.7536 30.5233 39.504 31.4963 39.5453 32.8682L39.8861 44.1866C39.9274 45.5585 40.2351 46.5148 40.8093 47.0554C41.3834 47.5959 42.3564 47.8456 43.7283 47.8042Z" fill="white"/>
<path d="M19.1889 52.3914H13.1121C12.0511 52.3914 11.5206 51.885 11.5206 50.8722V14.6284C11.5206 14.0979 11.2553 13.8326 10.7248 13.8326H2.4777C1.4649 13.8326 0.958496 13.3262 0.958496 12.3134V7.39408C0.958496 6.38128 1.4649 5.87488 2.4777 5.87488H29.8234C30.8362 5.87488 31.3426 6.38128 31.3426 7.39408V12.3134C31.3426 13.3262 30.8362 13.8326 29.8234 13.8326H21.5763C20.9975 13.8326 20.7081 14.0979 20.7081 14.6284V50.8722C20.7081 51.885 20.2017 52.3914 19.1889 52.3914Z" fill="white"/>
<path fill-rule="evenodd" clip-rule="evenodd" d="M339.706 56.0654C339.706 56.7523 339.187 57.317 338.5 57.3484C331.648 57.6623 297.093 59.1913 274.081 59.1913C251.069 59.1913 216.514 57.6623 209.661 57.3484C208.975 57.317 208.456 56.7523 208.456 56.0654V52.82C208.456 52.0854 209.045 51.4985 209.779 51.532C216.901 51.8576 251.198 53.3695 274.081 53.3695C296.964 53.3695 331.261 51.8576 338.383 51.532C339.116 51.4985 339.706 52.0854 339.706 52.82V56.0654Z" fill="#A5ADB5"/>
</svg>
