<?xml version="1.0" encoding="UTF-8"?>
<svg width="3564.1" height="600.72" version="1.1" viewBox="0 0 3564.1 600.72" xmlns="http://www.w3.org/2000/svg"><g transform="matrix(1.3333 0 0 -1.3333 0 600.72)"><g transform="scale(.1)" fill="#fff"><path transform="scale(1.5319)" d="m16207 931.14c11.1 0 19.7-1.456 25.9-4.309 6.1-2.858 11.6-7.93 16.4-15.149 4.8-7.214 9.7-17.98 14.8-32.203h30v77.819h-263.6v-15.629c11.4-2.779 19.4-6.168 23.8-10.223 4.5-4.034 7.6-9.411 9.3-16.064 1.7-6.737 2.6-16.345 2.6-28.891v-192.2c0-12.311-0.9-21.952-2.8-28.814-1.7-6.933-4.9-12.362-9.5-16.266-4.6-3.95-12.3-7.293-23.4-10.047v-15.628h263.9l5.4 89.577h-30c-5.7-17.672-10.5-30.141-14.5-37.459-3.9-7.318-8-12.826-12.4-16.424-4.3-3.616-9.7-6.115-15.9-7.495-6.3-1.377-14.5-2.042-24.7-2.042h-79.7v134.18h50.7c9.3 0 16.2-1.176 20.5-3.494 4.4-2.369 8-6.168 11-11.475 3-5.326 5.6-12.443 8-21.391h27.7v98.831h-27.7c-2.8-10.198-5.6-17.768-8.6-22.639-3-4.896-6.8-8.415-11.5-10.536-4.7-2.114-11.1-3.16-19.4-3.16h-50.7v121.12h84.4zm-839.1-224.4v-75.226c17.2-3.618 34.8-6.706 52.6-9.259 17.8-2.544 36-3.824 54.5-3.824 42.1 0 73.7 8.088 94.9 24.252 21.1 16.144 31.7 40.44 31.7 72.98 0 12.749-2.3 23.788-6.7 33.149-4.5 9.335-10.9 17.724-19.3 25.165-8.4 7.423-18.6 14.308-30.6 20.583-12 6.248-25.5 12.592-40.7 18.969-24.6 10.407-41.4 18.819-50.5 25.171-9 6.398-15.4 13.232-19.1 20.55-3.8 7.344-5.6 16.424-5.6 27.236 0 15.32 5.6 27.435 16.9 36.36 11.2 8.922 26.6 13.387 45.9 13.387 13.2 0 24-1.762 32.3-5.253 8.4-3.519 16-9.231 22.5-17.235 6.6-7.959 13.3-19.584 20.1-34.858h30.9v73.255c-18.7 3.85-35.7 6.507-51.2 8.009-15.4 1.482-31 2.221-47 2.221-17.1 0-33.4-1.764-48.7-5.255-15.4-3.519-28.7-9.075-40.2-16.725-11.5-7.678-20.5-17.391-27.1-29.174-6.5-11.809-9.9-25.882-9.9-42.253 0-9.565 1.5-18.26 4.3-26.165 2.9-7.854 7.7-15.705 14.4-23.559s15.4-15.302 26.1-22.312c10.8-7.012 26.5-14.968 47.4-23.893 28.4-12.316 47.5-21.906 56.9-28.689 9.4-6.829 15.9-13.714 19.2-20.726 3.5-6.992 5.2-15.379 5.2-25.171 0-17.645-5.8-31.032-17.6-40.159-11.7-9.134-28-13.749-49.1-13.749-15.9 0-29 2.045-39.2 6.097-10.2 4.054-18.6 10.452-25.3 19.278-6.7 8.799-12.4 21.065-17.4 36.823h-30.6zm-616.6 224.4c27.3 0 50.9-4.895 70.7-14.662 19.8-9.771 35.1-25.119 45.9-46.054 10.8-20.961 16.3-47.353 16.3-79.227 0-47.786-11.1-83.33-33.4-106.61-22.1-23.253-55.7-34.886-100.8-34.886h-7.4c-8.7 0-16.1 0.306-22.3 0.946v279.52c5.8 0.637 16.1 0.971 31 0.971zm-1.7-307.6c37.4 0 67.2 3.564 89.3 10.679 22.1 7.117 40.8 17.801 56 32.032 15.1 14.226 26.7 31.668 34.5 52.269 8.7 22.11 13.1 47.607 13.1 76.501 0 29.322-4.3 54.265-12.9 74.764-8.6 20.502-20.8 37.28-36.5 50.362-15.7 13.055-34.4 22.488-56.1 28.383-21.7 5.809-49.2 8.767-82.5 8.767h-125.6v-15.629c11-2.552 18.8-5.862 23.2-9.896 4.5-4.027 7.6-9.458 9.3-16.266 1.7-6.783 2.5-16.47 2.5-29.016v-192.2c0-12.311-0.8-21.952-2.5-28.814-1.7-6.933-4.8-12.362-9.3-16.266-4.4-3.95-12.2-7.293-23.2-10.047v-15.628h120.7zm-618.2 86.364c-7.4 12.976-18.3 30.191-32.5 51.662l-129.4 195.73h-93.8v-15.629c11.5-2.779 19.5-6.168 23.9-10.223 4.5-4.034 7.6-9.411 9.3-16.064 1.7-6.737 2.6-16.345 2.6-28.891v-192.2c0-12.311-1-21.952-2.7-28.814-1.9-6.933-5.1-12.362-9.6-16.266-4.6-3.95-12.4-7.293-23.5-10.047v-15.628h109.7v15.628c-10.8 2.527-18.6 5.842-23.3 9.897-4.6 4-7.9 9.432-9.7 16.24-1.8 6.783-2.7 16.45-2.7 28.99v135.48c0 10.432-0.1 20.989-0.3 31.701-0.2 10.705-0.7 22.057-1.6 33.963h2.2c4.7-8.696 9.5-16.705 14.4-23.919l169.8-250.22h35.8v265.19c0 12.337 0.8 21.952 2.5 28.891 1.8 6.88 4.9 12.285 9.4 16.24 4.6 3.904 12.5 7.268 23.8 10.047v15.629h-109.7v-15.629c10.8-2.552 18.6-5.862 23.3-9.896 4.7-4.027 7.9-9.458 9.7-16.266 1.9-6.783 2.8-16.47 2.8-29.016v-110.9c0-10.432 0-20.986 0.2-31.699 0.2-10.783 0.7-22.085 1.6-33.99h-2.2zm-828.6 196.68 52.2-150.12h-114.7l62.5 150.12zm172.7-283.04v15.628c-8.7 2.142-15.2 4.922-19.6 8.415-4.3 3.519-8.1 8.517-11.5 14.994-3.2 6.502-7.3 16.75-12.2 30.778l-94 269.02h-45l-115.7-260.74c-7.6-17.416-13.9-29.936-18.6-37.456-4.8-7.548-9.8-13.285-15.1-17.215-5.1-3.924-11.4-6.527-18.9-7.8v-15.628h120.8v15.628c-12.6 2.754-21.3 6.403-26.3 10.993-5 4.562-7.5 11.424-7.5 20.55 0 4.87 0.7 10.378 2.2 16.424 1.6 6.064 4.6 15.119 9.3 27.234l6 15.96h134l7-22.644c2.8-8.723 4.9-16.039 6.3-21.98 1.5-5.967 2.3-11.809 2.3-17.541 0-5.712-1.1-10.353-3.1-13.852-2-3.519-5-6.273-8.9-8.31-3.9-2.017-11-4.307-21.2-6.834v-15.628h129.7zm-982.2 333.76v-15.629c11.5-2.779 19.4-6.168 23.9-10.223 4.4-4.034 7.5-9.411 9.2-16.064 1.7-6.737 2.6-16.345 2.6-28.891v-192.2c0-12.311-0.9-21.952-2.8-28.814-1.7-6.933-4.9-12.362-9.5-16.266-4.6-3.95-12.4-7.293-23.4-10.047v-15.628h245.1l6.3 104.54h-29.9c-5.1-21.471-9.6-36.643-13.4-45.591-3.8-8.879-8-15.608-12.6-20.042-4.6-4.516-9.8-7.5-15.9-9.106-6.1-1.607-14.7-2.423-26-2.423h-61.5v235.57c0 12.546 0.8 22.233 2.5 29.016 1.7 6.808 4.9 12.239 9.4 16.266 4.6 4.034 12.5 7.344 23.8 9.896v15.629h-127.8zm-582.2-26.158c17.8 0 32.8-2.017 44.9-6.046 12.1-4.051 21.5-11.115 28.4-21.241 6.8-10.072 10.1-23.609 10.1-40.623 0-24.015-7-41.941-21.2-53.855-14.1-11.905-35.6-17.821-64.5-17.821h-45.9v138.31c14 0.87 30.1 1.28 48.2 1.28zm-7.7-291.97c-12.8 2.323-21.7 5.562-26.9 9.713-5.3 4.133-8.8 10.151-10.7 18.005-1.9 7.851-2.9 20.3-2.9 37.306v61.198h29c12.8 0 22.3-1.175 28.6-3.518 6.2-2.344 12.2-6.424 18-12.266 5.7-5.837 12.3-15.478 20-28.865l25.2-44.627c12.5-22.715 23.4-40.263 32.8-52.574h81.3v15.628c-8.5 1.683-15.3 4.08-20.3 7.168-5.1 3.08-10 7.344-14.5 12.775-4.7 5.378-10 13.107-16.2 23.1l-26.4 42.046c-8.8 13.62-17 24.077-24.7 31.393-7.8 7.343-16.6 13.03-26.3 17.059l-0.4 2.884c13.6 4.896 24.4 9.407 32.4 13.54 8 4.151 15.3 8.871 22 14.178 6.7 5.327 12.3 11.143 16.9 17.515 4.5 6.378 8.1 13.362 10.6 20.882 2.6 7.578 3.9 16.118 3.9 25.68 0 19.76-4.2 36.184-12.5 49.265-8.3 13.03-21.9 23.077-40.9 30.087-19 7.038-44.3 10.557-75.7 10.557h-154.9v-15.32c11.5-2.757 19.4-6.171 23.9-10.205 4.5-4.027 7.5-9.379 9.2-16.111 1.7-6.658 2.6-16.274 2.6-28.814v-192.55c0-12.311-0.9-21.952-2.7-28.814-1.9-6.933-5-12.362-9.6-16.266-4.6-3.95-12.4-7.293-23.4-10.047v-15.628h132.6v15.628zm-652.1 291.97c11.1 0 19.7-1.456 25.8-4.309 6.2-2.858 11.7-7.93 16.5-15.149 4.7-7.214 9.7-17.98 14.8-32.203h30v77.819h-263.6v-15.629c11.4-2.779 19.4-6.168 23.9-10.223 4.4-4.034 7.5-9.411 9.2-16.064 1.7-6.737 2.6-16.345 2.6-28.891v-192.2c0-12.311-0.9-21.952-2.8-28.814-1.8-6.933-4.9-12.362-9.5-16.266-4.6-3.95-12.4-7.293-23.4-10.047v-15.628h263.9l5.4 89.577h-30c-5.7-17.672-10.5-30.141-14.4-37.459-4-7.318-8.1-12.826-12.5-16.424-4.4-3.616-9.7-6.115-15.9-7.495-6.3-1.377-14.5-2.042-24.7-2.042h-79.7v134.18h50.6c9.4 0 16.3-1.176 20.6-3.494 4.4-2.369 8-6.168 11-11.475 3-5.326 5.6-12.443 8-21.391h27.7v98.831h-27.7c-2.8-10.198-5.7-17.768-8.6-22.639-3-4.896-6.8-8.415-11.5-10.536-4.7-2.114-11.2-3.16-19.5-3.16h-50.6v121.12h84.4zm-796.4 0c27.4 0 51-4.895 70.7-14.662 19.8-9.771 35.1-25.119 45.9-46.054 10.9-20.961 16.3-47.353 16.3-79.227 0-47.786-11-83.33-33.3-106.61-22.2-23.253-55.8-34.886-100.9-34.886h-7.3c-8.7 0-16.2 0.306-22.3 0.946v279.52c5.7 0.637 16.1 0.971 30.9 0.971zm-1.6-307.6c37.4 0 67.2 3.564 89.3 10.679 22.1 7.117 40.7 17.801 55.9 32.032 15.2 14.226 26.7 31.668 34.6 52.269 8.7 22.11 13.1 47.607 13.1 76.501 0 29.322-4.4 54.265-13 74.764-8.5 20.502-20.7 37.28-36.5 50.362-15.7 13.055-34.4 22.488-56 28.383-21.8 5.809-49.3 8.767-82.6 8.767h-125.6v-15.629c11.1-2.552 18.8-5.862 23.3-9.896 4.4-4.027 7.6-9.458 9.2-16.266 1.8-6.783 2.5-16.47 2.5-29.016v-192.2c0-12.311-0.7-21.952-2.5-28.814-1.6-6.933-4.8-12.362-9.2-16.266-4.5-3.95-12.2-7.293-23.3-10.047v-15.628h120.8zm-640.89 307.6c11.03 0 19.65-1.456 25.85-4.309 6.14-2.858 11.62-7.93 16.39-15.149 4.76-7.214 9.72-17.98 14.82-32.203h29.96v77.819h-263.59v-15.629c11.42-2.779 19.45-6.168 23.89-10.223 4.43-4.034 7.57-9.411 9.2-16.064 1.76-6.737 2.61-16.345 2.61-28.891v-192.2c0-12.311-0.91-21.952-2.74-28.814-1.76-6.933-4.96-12.362-9.53-16.266-4.57-3.95-12.34-7.293-23.43-10.047v-15.628h263.91l5.42 89.577h-29.96c-5.74-17.672-10.51-30.141-14.49-37.459-3.92-7.318-8.1-12.826-12.41-16.424-4.37-3.616-9.72-6.115-15.92-7.495-6.33-1.377-14.56-2.042-24.74-2.042h-79.71v134.18h50.72c9.34 0 16.19-1.176 20.5-3.494 4.37-2.369 8.03-6.168 11.03-11.475 2.94-5.326 5.62-12.443 7.97-21.391h27.74v98.831h-27.74c-2.81-10.198-5.62-17.768-8.62-22.639-3-4.896-6.79-8.415-11.49-10.536-4.63-2.114-11.16-3.16-19.39-3.16h-50.72v121.12h84.47zm-673.41-221.24c-7.44 12.976-18.28 30.191-32.51 51.662l-129.38 195.73h-93.74v-15.629c11.49-2.779 19.45-6.168 23.96-10.223 4.43-4.034 7.5-9.411 9.2-16.064 1.7-6.737 2.54-16.345 2.54-28.891v-192.2c0-12.311-0.91-21.952-2.67-28.814-1.83-6.933-5.03-12.362-9.6-16.266-4.57-3.95-12.4-7.293-23.43-10.047v-15.628h109.66v15.628c-10.83 2.527-18.6 5.842-23.23 9.897-4.7 4-7.97 9.432-9.73 16.24-1.83 6.783-2.74 16.45-2.74 28.99v135.48c0 10.432-0.13 20.989-0.33 31.701-0.19 10.705-0.72 22.057-1.56 33.963h2.21c4.7-8.696 9.47-16.705 14.3-23.919l169.92-250.22h35.77v265.19c0 12.337 0.79 21.952 2.48 28.891 1.7 6.88 4.83 12.285 9.4 16.24 4.64 3.904 12.47 7.268 23.77 10.047v15.629h-109.67v-15.629c10.83-2.552 18.6-5.862 23.3-9.896 4.64-4.027 7.9-9.458 9.73-16.266 1.83-6.783 2.74-16.47 2.74-29.016v-110.9c0-10.432 0.07-20.986 0.26-31.699 0.2-10.783 0.72-22.085 1.63-33.99h-2.28zm-1064.4 221.24c10.97 0 19.58-1.456 25.79-4.309 6.13-2.858 11.62-7.93 16.45-15.149 4.76-7.214 9.66-17.98 14.75-32.203h29.96v77.819h-263.59v-15.629c11.49-2.779 19.45-6.168 23.89-10.223 4.5-4.034 7.57-9.411 9.27-16.064 1.7-6.737 2.55-16.345 2.55-28.891v-192.2c0-12.311-0.92-21.952-2.68-28.814-1.83-6.933-5.03-12.362-9.6-16.266-4.57-3.95-12.4-7.293-23.43-10.047v-15.628h263.92l5.42 89.577h-29.97c-5.74-17.672-10.57-30.141-14.49-37.459s-8.09-12.826-12.47-16.424c-4.3-3.616-9.66-6.115-15.93-7.495-6.2-1.377-14.49-2.042-24.67-2.042h-79.64v134.18h50.66c9.33 0 16.19-1.176 20.56-3.494 4.31-2.369 8.03-6.168 10.97-11.475 3-5.326 5.61-12.443 8.03-21.391h27.67v98.831h-27.67c-2.81-10.198-5.68-17.768-8.69-22.639-2.93-4.896-6.78-8.415-11.42-10.536-4.7-2.114-11.23-3.16-19.45-3.16h-50.66v121.12h84.47zm-810.83-44.649c0 12.161 0.85 21.618 2.55 28.531 1.76 6.913 4.7 12.39 9.08 16.424 4.37 4.055 12.4 7.444 24.08 10.223v15.629h-127.81v-15.629c11.49-2.779 19.45-6.168 23.89-10.223 4.44-4.034 7.57-9.411 9.27-16.064 1.7-6.737 2.55-16.345 2.55-28.891v-192.2c0-12.311-0.92-21.952-2.75-28.814-1.82-6.933-4.96-12.362-9.53-16.266-4.57-3.95-12.4-7.293-23.43-10.047v-15.628h127.81v15.628c-10.83 2.527-18.6 5.842-23.24 9.897-4.7 4-7.96 9.432-9.72 16.24-1.83 6.783-2.75 16.45-2.75 28.99v90.529h13.06c5.09 0 9.21-0.255 12.27-0.771 3.07-0.56 5.75-1.246 7.84-2.088 2.15-0.869 4.31-2.142 6.52-3.825 2.29-1.711 4.31-3.748 6.34-6.071 2.02-2.318 4.44-5.302 7.18-8.897l53.92-71.09c8.48-11.273 13.64-19.204 15.47-23.742 1.76-4.588 2.68-9.203 2.68-13.898 0-4.641-1.64-8.264-4.97-10.809-3.26-2.578-8.22-4.054-14.81-4.465v-15.628h131.99v15.628c-9.14 2.323-16.45 5.123-22 8.415-5.55 3.315-10.51 7.244-15.01 11.834-4.44 4.537-10.58 11.906-18.41 22.129l-98.25 127.83 91.85 92.436c14.62 14.667 26.31 24.663 35.05 29.962 8.69 5.309 16.85 8.624 24.48 9.896v15.629h-135.45v-15.629c9.6-1.071 16.45-3.465 20.56-7.193 4.18-3.695 6.27-9.101 6.27-16.085 0-5.947-1.17-11.886-3.39-17.881-2.22-5.913-6.34-12.846-12.21-20.705-6.01-7.854-15.73-18.533-29.24-32.025-13.45-13.486-23.31-22.516-29.64-27.078-6.27-4.59-12.41-7.782-18.41-9.59-6.07-1.808-14.36-2.675-24.74-2.675h-8.95v78.054zm-550.36 0c0 12.161 0.85 21.618 2.55 28.531s4.7 12.39 9.07 16.424c4.38 4.055 12.41 7.444 24.09 10.223v15.629h-127.82v-15.629c11.49-2.779 19.46-6.168 23.9-10.223 4.5-4.034 7.57-9.411 9.27-16.064 1.69-6.737 2.54-16.345 2.54-28.891v-245.1c0-17.416-1.31-31.184-3.85-41.256-2.54-10.098-6.14-18.135-10.84-24.099-4.7-5.942-10.25-10.891-16.77-14.788-6.4-3.955-16.19-8.57-29.12-13.871l10.84-28.05c27.03 7.65 48.17 17.442 63.45 29.297 15.28 11.908 26.18 26.568 32.83 44.012 6.6 17.441 9.86 39.728 9.86 66.936v226.92zm-514.65-247.32c-10.86 2.527-18.64 5.842-23.25 9.897-4.69 4-7.96 9.432-9.75 16.24-1.8 6.783-2.7 16.45-2.7 28.99v192.2c0 12.161 0.84 21.618 2.55 28.531 1.69 6.913 4.7 12.39 9.08 16.424 4.36 4.055 12.34 7.444 24.07 10.223v15.629h-127.83v-15.629c11.48-2.779 19.46-6.168 23.9-10.223 4.49-4.034 7.54-9.411 9.22-16.064 1.72-6.737 2.59-16.345 2.59-28.891v-192.2c0-12.311-0.95-21.952-2.71-28.814-1.81-6.933-4.97-12.362-9.56-16.266-4.54-3.95-12.37-7.293-23.44-10.047v-15.628h127.83v15.628zm-793.21 318.13v-15.629c11.45-2.779 19.38-6.168 23.85-10.223 4.45-4.034 7.57-9.411 9.28-16.064 1.68-6.737 2.49-16.345 2.49-28.891v-192.2c0-12.311-0.89-21.952-2.67-28.814-1.81-6.933-5-12.362-9.57-16.266-4.56-3.95-12.39-7.293-23.38-10.047v-15.628h245.07l6.41 104.54h-29.99c-5.13-21.471-9.56-36.643-13.36-45.591-3.88-8.879-8.03-15.608-12.65-20.042-4.54-4.516-9.87-7.5-15.91-9.106-6.05-1.607-14.72-2.423-25.98-2.423h-61.51v235.57c0 12.546 0.84 22.233 2.55 29.016 1.68 6.808 4.82 12.239 9.44 16.266 4.53 4.034 12.44 7.344 23.71 9.896v15.629h-127.78zm-634.25-70.807c0 12.161 0.87 21.618 2.58 28.531 1.68 6.913 4.71 12.39 9.05 16.424 4.38 4.055 12.39 7.444 24.07 10.223v15.629h-127.83v-15.629c11.53-2.779 19.48-6.168 23.9-10.223 4.49-4.034 7.57-9.411 9.25-16.064 1.71-6.737 2.58-16.345 2.58-28.891v-192.2c0-12.311-0.92-21.952-2.7-28.814-1.81-6.933-4.97-12.362-9.59-16.266-4.54-3.95-12.37-7.293-23.44-10.047v-15.628h127.83v15.628c-10.86 2.527-18.59 5.842-23.23 9.897-4.69 4-7.95 9.432-9.77 16.24-1.75 6.783-2.7 16.45-2.7 28.99v90.529h13.11c5.07 0 9.15-0.255 12.24-0.771 3.09-0.56 5.69-1.246 7.8-2.088 2.14-0.869 4.33-2.142 6.55-3.825 2.25-1.711 4.36-3.748 6.38-6.071 2.01-2.318 4.39-5.302 7.16-8.897l53.86-71.09c8.52-11.273 13.67-19.204 15.46-23.742 1.8-4.588 2.72-9.203 2.72-13.898 0-4.641-1.63-8.264-4.92-10.809-3.31-2.578-8.24-4.054-14.84-4.465v-15.628h131.99v15.628c-9.13 2.323-16.5 5.123-22.04 8.415-5.53 3.315-10.5 7.244-14.96 11.834-4.47 4.537-10.64 11.906-18.52 22.129l-98.12 127.83 91.77 92.436c14.67 14.667 26.32 24.663 35.09 29.962 8.7 5.309 16.88 8.624 24.48 9.896v15.629h-135.46v-15.629c9.59-1.071 16.45-3.465 20.61-7.193 4.13-3.695 6.17-9.101 6.17-16.085 0-5.947-1.09-11.886-3.34-17.881-2.22-5.913-6.3-12.846-12.27-20.705-5.91-7.854-15.65-18.533-29.16-32.025-13.52-13.486-23.39-22.516-29.63-27.078-6.28-4.59-12.43-7.782-18.49-9.59-6.02-1.808-14.28-2.675-24.66-2.675h-8.98v78.054zm-588.91-176.59c-7.44 12.976-18.25 30.191-32.53 51.662l-129.41 195.73h-93.72v-15.629c11.48-2.779 19.49-6.168 23.92-10.223 4.44-4.034 7.55-9.411 9.26-16.064 1.71-6.737 2.58-16.345 2.58-28.891v-192.2c0-12.311-0.95-21.952-2.78-28.814-1.79-6.933-4.98-12.362-9.54-16.266-4.56-3.95-12.36-7.293-23.44-10.047v-15.628h109.68v15.628c-10.86 2.527-18.61 5.842-23.28 9.897-4.67 4-7.9 9.432-9.74 16.24-1.79 6.783-2.71 16.45-2.71 28.99v135.48c0 10.432-0.07 20.989-0.28 31.701-0.25 10.705-0.79 22.057-1.63 33.963h2.24c4.67-8.696 9.49-16.705 14.36-23.919l169.91-250.22h35.65v265.19c0 12.337 0.86 21.952 2.57 28.891 1.71 6.88 4.82 12.285 9.44 16.24 4.53 3.904 12.44 7.268 23.73 10.047v15.629h-109.69v-15.629c10.86-2.552 18.63-5.862 23.28-9.896 4.69-4.027 7.93-9.458 9.74-16.266 1.81-6.783 2.7-16.47 2.7-29.016v-110.9c0-10.432 0.1-20.986 0.31-31.699 0.25-10.783 0.73-22.085 1.63-33.99h-2.25zm-682.95-70.736c-10.86 2.527-18.64 5.842-23.28 9.897-4.69 4-7.96 9.432-9.71 16.24-1.82 6.783-2.7 16.45-2.7 28.99v192.2c0 12.161 0.81 21.618 2.51 28.531 1.69 6.913 4.72 12.39 9.06 16.424 4.39 4.055 12.39 7.444 24.12 10.223v15.629h-127.83v-15.629c11.48-2.779 19.41-6.168 23.92-10.223 4.44-4.034 7.5-9.411 9.26-16.064 1.63-6.737 2.5-16.345 2.5-28.891v-192.2c0-12.311-0.92-21.952-2.71-28.814-1.8-6.933-4.97-12.362-9.53-16.266-4.57-3.95-12.39-7.293-23.44-10.047v-15.628h127.83v15.628zm-624.6 70.736c-7.51 12.976-18.32 30.191-32.55 51.662l-129.43 195.73h-93.73v-15.629c11.52-2.779 19.48-6.168 23.91-10.223 4.49-4.034 7.58-9.411 9.26-16.064 1.71-6.737 2.57-16.345 2.57-28.891v-192.2c0-12.311-0.94-21.952-2.7-28.814-1.81-6.933-4.97-12.362-9.58-16.266-4.55-3.95-12.4-7.293-23.46-10.047v-15.628h109.67v15.628c-10.86 2.527-18.62 5.842-23.26 9.897-4.67 4-7.93 9.432-9.71 16.24-1.82 6.783-2.73 16.45-2.73 28.99v135.48c0 10.432-0.1 20.989-0.31 31.701-0.22 10.705-0.73 22.057-1.6 33.963h2.24c4.66-8.696 9.46-16.705 14.36-23.919l169.87-250.22h35.7v265.19c0 12.337 0.84 21.952 2.55 28.891 1.68 6.88 4.82 12.285 9.41 16.24 4.56 3.904 12.47 7.268 23.74 10.047v15.629h-109.65v-15.629c10.84-2.552 18.62-5.862 23.28-9.896 4.64-4.027 7.91-9.458 9.7-16.266 1.81-6.783 2.7-16.47 2.7-29.016v-110.9c0-10.432 0.12-20.986 0.35-31.699 0.21-10.783 0.77-22.085 1.59-33.99h-2.19zm-901.82 191.27c15.17 23.355 37.76 35.059 67.72 35.059 17.88 0 33.49-4.896 46.85-14.688 13.36-9.764 24.02-25.803 31.87-48.089 7.86-22.34 11.81-51.152 11.81-86.423 0-45.231-7.65-80.293-22.92-105.18-15.33-24.839-37.42-37.308-66.33-37.308-30.17 0-53.04 13.109-68.52 39.246-15.52 26.112-23.28 63.823-23.28 113.14 0 46.126 7.6 80.862 22.8 104.24zm145.5-262.8c23.15 13.257 41.13 33.305 53.83 60.076 12.8 26.777 19.17 59.697 19.17 98.811 0 35.676-5.58 65.939-16.75 90.673-11.17 24.76-27.95 43.326-50.36 55.793-22.39 12.449-49.85 18.645-82.39 18.645-21.49 0-41.51-3.343-60.08-10.047-18.61-6.686-34.7-17.163-48.29-31.392-13.62-14.231-24.23-32.157-31.88-53.699-7.62-21.601-11.47-47.327-11.47-77.317 0-39.088 6.01-71.401 18-96.898 11.99-25.499 28.92-44.318 50.7-56.407 21.75-12.11 47.73-18.181 77.94-18.181 31.22 0 58.42 6.632 81.58 19.943zm-847.45 248.11c0 12.161 0.87 21.618 2.55 28.531 1.71 6.913 4.74 12.39 9.08 16.424 4.36 4.055 12.39 7.444 24.07 10.223v15.629h-127.8v-15.629c11.45-2.779 19.43-6.168 23.92-10.223 4.45-4.034 7.52-9.411 9.2-16.064 1.71-6.737 2.57-16.345 2.57-28.891v-192.2c0-12.311-0.91-21.952-2.7-28.814-1.81-6.933-4.99-12.362-9.56-16.266-4.59-3.95-12.37-7.293-23.43-10.047v-15.628h127.8v15.628c-10.83 2.527-18.59 5.842-23.28 9.897-4.67 4-7.91 9.432-9.69 16.24-1.83 6.783-2.73 16.45-2.73 28.99v90.529h13.08c5.1 0 9.18-0.255 12.24-0.771 3.11-0.56 5.71-1.246 7.86-2.088 2.08-0.869 4.28-2.142 6.52-3.825 2.22-1.711 4.34-3.748 6.38-6.071 2.01-2.318 4.41-5.302 7.19-8.897l53.83-71.09c8.52-11.273 13.67-19.204 15.45-23.742 1.84-4.588 2.73-9.203 2.73-13.898 0-4.641-1.64-8.264-4.95-10.809-3.28-2.578-8.21-4.054-14.81-4.465v-15.628h131.96v15.628c-9.15 2.323-16.45 5.123-21.98 8.415-5.54 3.315-10.56 7.244-15 11.834-4.43 4.537-10.63 11.906-18.46 22.129l-98.22 127.83 91.82 92.436c14.69 14.667 26.34 24.663 35.03 29.962 8.73 5.309 16.94 8.624 24.59 9.896v15.629h-135.51v-15.629c9.59-1.071 16.45-3.465 20.58-7.193 4.13-3.695 6.25-9.101 6.25-16.085 0-5.947-1.12-11.886-3.37-17.881-2.24-5.913-6.32-12.846-12.26-20.705-5.99-7.854-15.66-18.533-29.18-32.025-13.48-13.486-23.38-22.516-29.63-27.078-6.27-4.59-12.44-7.782-18.51-9.59-6.06-1.808-14.3-2.675-24.7-2.675h-8.93v78.054"/><path d="m12813 4429.2h-38.1v76.25h-152.5v-76.25h-38.1v-38.14h228.7zm1334.3 0h-38.1v76.25h-152.5v-76.25h-38.1v-38.14h228.7zm38.2-419.36h-76.3v76.23l38.1 19.02 38.2-19.02zm-1639.4 76.23 38.2 19.15 38.1-19.15v-76.23h-76.3zm1868.1-76.23-305 304.97v38.13h-1486.8v-38.13l-304.9-304.97h-38.2v-38.14h571.9v38.14h-190.7v95.81l-76.2 37.17-76.3-35.41v-97.57h-152.5l266.9 266.85h152.5v38.12h1181.8v-38.12h152.5l266.9-266.85h-152.5v95.81l-76.3 38.94-76.2-37.18v-97.57h-190.6v-38.14h571.9v38.14zm-76.3-1181.8h-76.2v800.6h76.2zm-114.3 495.61h-114.4v228.74h114.4zm0-457.5h-114.4v305.02h114.4zm-152.5-38.11h-76.3v800.6h76.3zm-114.4 495.61h-114.4v228.74h114.4zm0-457.5h-114.4v305.02h114.4zm-266.8 457.5h-114.4v228.74h114.4zm0-457.5h-114.4v305.02h114.4zm-152.5-38.11h-76.3v800.6h76.3zm-114.4 495.61h-114.4v228.74h114.4zm0-457.5h-114.4v305.02h114.4zm-152.5-38.11h-76.2v800.6h76.2zm-114.3 495.61h-114.4v228.74h114.4zm0-457.5h-114.4v305.02h114.4zm-266.9 457.5h-114.4v228.74h114.4zm0-457.5h-114.4v305.02h114.4zm-152.6-38.11h-76.2v800.6h76.2zm-114.3 495.61h-114.4v228.74h114.4zm0-457.5h-114.4v305.02h114.4zm-152.5-38.11h-76.3v800.6h76.3zm1944.3 1105.6h-571.9v-114.36h533.8v-38.12h-38.2v-114.38h-76.2v114.38h-38.1v-114.38h-114.4v114.38h-38.1v-114.38h-76.3v114.38h-38.1v-114.38h-114.4v114.38h-38.1v-114.38h-76.2v114.38h-38.1v-114.38h-114.4v114.38h-38.1v-114.38h-76.3v114.38h-38.1v-114.38h-114.4v114.38h-38.1v-114.38h-76.2v114.38h-38.1v-114.38h-114.4v114.38h-38.2v-114.38h-76.2v114.38h-38.1v-114.38h-114.4v114.38h-38.2v-114.38h-76.2v114.38h-38.1v-114.38h-114.4v114.38h-38.1v-114.38h-76.3v114.38h-38.1v38.12h533.8v114.36h-571.8v-1143.7h-38.2v-38.14h610v76.25h38.1v800.6h76.2v-800.6h-76.2v-76.25h876.8v76.25h-76.2v800.6h76.2v-800.6h38.1v-76.25h610.1v38.14h-38.2zm-610-114.36v114.36h-876.8v-114.36zm-1296.2-1372.4h114.4v-76.26h-114.4zm0 228.73h114.4v-152.51h-114.4zm228.7 0h190.7v-304.99h-190.7zm305.1-228.73h114.4v-76.26h-114.4zm0 228.73h114.4v-152.51h-114.4zm266.8-228.73h114.4v-76.26h-114.4zm0 228.73h114.4v-152.51h-114.4zm266.9-228.73h114.4v-76.26h-114.4zm0 228.73h114.4v-152.51h-114.4zm228.7 0h190.6v-304.99h-190.6zm305-228.73h114.4v-76.26h-114.4zm0 228.73h114.4v-152.51h-114.4zm-1791.7-343.13h2096.7v381.24h-2096.7zm1352.8 1677.4-304.5 142.95-295.6-142.95h-92.1l387.7 190.6 386-190.6zm-247.3 0h-38.1v52.42h-38.1v-52.42h-38.2l-110.2 27.1 8.1 30.08 101.9-25.04 0.2 44.09h38.2v38.14h38.1v-38.14h38.1v-44.09l101.9 25.04 7.4-29.48zm419.3 0-476.5 228.74-476.5-228.74v-38.14h953v38.14"/><g opacity=".75"><path transform="scale(1.6399)" d="m16231 85.467c-7 12.098-17.1 28.178-30.4 48.234l-120.9 182.81h-87.5v-14.597c10.8-2.574 18.2-5.769 22.3-9.506 4.2-3.787 7.1-8.787 8.6-15.056 1.7-6.239 2.4-15.221 2.4-26.94v-179.55c0-11.507-0.8-20.482-2.5-26.94-1.7-6.4527-4.6-11.507-9-15.197-4.2-3.6896-11.5-6.7862-21.8-9.3849v-14.58h102.5v14.58c-10.2 2.4034-17.5 5.4999-21.8 9.2444-4.4 3.7634-7.4 8.837-9.1 15.197s-2.6 15.409-2.6 27.08v126.58c0 9.697 0 19.579-0.2 29.605-0.2 10.007-0.7 20.58-1.5 31.708h2.1c4.3-8.146 8.8-15.58 13.4-22.323l158.7-233.74h33.3v247.72c0 11.507 0.8 20.489 2.4 26.94 1.5 6.457 4.5 11.531 8.8 15.178 4.3 3.689 11.7 6.81 22.2 9.384v14.597h-102.4v-14.597c10.1-2.384 17.3-5.457 21.7-9.22 4.3-3.787 7.3-8.835 9.1-15.171 1.7-6.386 2.5-15.392 2.5-27.111v-103.62c0-9.713 0.1-19.622 0.3-29.653 0.2-10.006 0.7-20.58 1.5-31.677h-2.1zm-722.8 206.63c10.3 0 18.3-1.329 24.1-3.999 5.8-2.689 10.9-7.411 15.3-14.147 4.5-6.769 9.1-16.795 13.9-30.086h28v72.647h-246.3v-14.597c10.8-2.574 18.2-5.769 22.3-9.506 4.2-3.787 7.1-8.787 8.7-15.056 1.5-6.239 2.4-15.221 2.4-26.94v-179.55c0-11.507-0.9-20.482-2.6-26.94-1.7-6.4527-4.7-11.507-8.9-15.197s-11.6-6.7862-21.9-9.3849v-14.58h246.6l5 83.68h-28c-5.3-16.481-9.8-28.152-13.6-34.988-3.6-6.86-7.5-11.957-11.5-15.318-4.1-3.3847-9.1-5.7191-14.9-7.0005-5.9-1.3101-13.6-1.9818-23.1-1.9818h-74.4v125.36h47.3c8.8 0 15.2-1.072 19.3-3.285 4-2.172 7.4-5.721 10.2-10.697 2.7-4.933 5.2-11.598 7.4-19.963h26v92.327h-26c-2.5-9.502-5.3-16.581-8-21.154-2.7-4.55-6.3-7.835-10.7-9.812-4.4-2.001-10.5-2.975-18.2-2.975h-47.3v113.14h78.9zm-694.3 0c11.3 0 21.7-0.95 31.3-2.83 9.5-1.908 17.8-5.292 24.9-10.268 7-4.957 12.5-11.574 16.5-19.794 3.9-8.268 5.9-18.72 5.9-31.416 0-11.891-1.5-22.061-4.8-30.348-3.1-8.361-8.3-15.483-15.4-21.319-7.1-5.859-16-10.073-26.5-12.645-10.5-2.599-24.5-3.885-42-3.885h-33v131.29c10.1 0.786 24.5 1.212 43.1 1.212zm-5.3-272.75c-11.9 2.2152-20.3 5.2379-25.2 9.0991-4.9 3.8587-8.2 9.4563-9.9 16.843-1.9 7.3102-2.7 18.908-2.7 34.824v55.952c11.9-0.571 27.2-0.883 46.1-0.883 19.1 0 36.1 1.476 51.2 4.475 15.1 2.959 27.6 7.623 37.6 13.982 6.3 3.983 12.5 8.935 18.4 14.916 7.5 7.525 13.6 16.648 18.2 27.366 4.5 10.745 6.8 23.105 6.8 37.228 0 19.275-4.1 34.874-12.2 46.879-8.1 12.031-21.3 21.104-39.6 27.252-18.2 6.14-42.6 9.237-72.9 9.237h-139.7v-14.597c10.7-2.574 18.1-5.769 22.3-9.506 4.2-3.787 7.1-8.787 8.6-15.056 1.7-6.239 2.5-15.221 2.5-26.94v-179.55c0-11.507-0.9-20.482-2.6-26.94-1.7-6.4527-4.6-11.507-8.9-15.197s-11.6-6.7862-21.9-9.3849v-14.58h123.9v14.58zm-653.2 272.75c11.3 0 21.8-0.95 31.3-2.83 9.5-1.908 17.8-5.292 24.8-10.268 7.1-4.957 12.6-11.574 16.6-19.794 4-8.268 5.9-18.72 5.9-31.416 0-11.891-1.6-22.061-4.7-30.348-3.2-8.361-8.4-15.483-15.5-21.319-7.2-5.859-16-10.073-26.5-12.645-10.5-2.599-24.5-3.885-42-3.885h-33v131.29c10 0.786 24.5 1.212 43.1 1.212zm-5.4-272.75c-11.9 2.2152-20.2 5.2379-25.1 9.0991-4.9 3.8587-8.2 9.4563-9.9 16.843-1.9 7.3102-2.7 18.908-2.7 34.824v55.952c11.9-0.571 27.2-0.883 46.1-0.883 19.1 0 36.1 1.476 51.3 4.475 15 2.959 27.5 7.623 37.4 13.982 6.4 3.983 12.6 8.935 18.5 14.916 7.5 7.525 13.6 16.648 18.1 27.366 4.6 10.745 6.9 23.105 6.9 37.228 0 19.275-4.1 34.874-12.2 46.879-8.2 12.031-21.4 21.104-39.6 27.252-18.3 6.14-42.6 9.237-73 9.237h-139.6v-14.597c10.8-2.574 18.2-5.769 22.3-9.506 4.2-3.787 7.1-8.787 8.6-15.056 1.6-6.239 2.4-15.221 2.4-26.94v-179.55c0-11.507-0.8-20.482-2.5-26.94-1.7-6.4527-4.7-11.507-8.9-15.197-4.3-3.6896-11.6-6.7862-21.9-9.3849v-14.58h123.8v14.58zm-660.3 249.82 48.9-140.23h-107.2l58.3 140.23zm161.4-264.4v14.58c-8.1 2.0009-14.2 4.6472-18.3 7.9105-4 3.2609-7.6 7.9319-10.7 14.006-3.1 6.0478-6.9 15.623-11.4 28.726l-87.8 251.27h-42.1l-108.1-243.56c-7.1-16.271-12.9-27.94-17.3-34.967-4.6-7.0482-9.2-12.408-14.1-16.078-4.8-3.6896-10.7-6.1216-17.7-7.3126v-14.58h112.9v14.58c-11.8 2.5987-19.9 6.0264-24.6 10.269-4.7 4.2875-7 10.69-7 19.246 0 4.5471 0.7 9.6468 2.1 15.311 1.3 5.6452 4.2 14.154 8.7 25.463l5.6 14.892h125l6.6-21.154c2.6-8.1224 4.5-14.956 5.9-20.554 1.4-5.5261 2.1-10.983 2.1-16.366 0-5.3618-0.9-9.6731-2.8-12.958-1.9-3.2871-4.6-5.862-8.4-7.7151-3.6-1.908-10.2-4.0303-19.7-6.4337v-14.58h121.1zm-729.6 245.65c0 11.317 0.7 20.13 2.2 26.49 1.5 6.359 4.3 11.457 8.3 15.342 4.1 3.882 11.5 7.096 22.2 9.67v14.597h-118.5v-14.597c10.5-2.574 17.9-5.695 22.2-9.384 4.3-3.647 7.1-8.721 8.6-15.178 1.5-6.451 2.3-15.433 2.3-26.94v-70.887h-138.5v70.887c0 11.317 0.8 20.201 2.4 26.659 1.6 6.452 4.4 11.55 8.5 15.337 4.1 3.737 11.5 6.932 22.5 9.506v14.597h-119.4v-14.597c10.7-2.574 18.2-5.769 22.3-9.506 4.2-3.787 7.1-8.787 8.7-15.056 1.6-6.239 2.3-15.221 2.3-26.94v-179.55c0-11.507-0.8-20.482-2.5-26.94-1.7-6.4527-4.7-11.507-8.9-15.197-4.3-3.6896-11.6-6.7862-21.9-9.3849v-14.58h119.4v14.58c-10.1 2.4034-17.4 5.4999-21.7 9.2444-4.5 3.7634-7.5 8.837-9.1 15.197-1.8 6.3598-2.6 15.409-2.6 27.08v83.106h138.5v-83.106c0-11.507-0.8-20.435-2.4-26.795s-4.5-11.433-8.8-15.152c-4.3-3.8112-11.5-6.9768-21.9-9.5755v-14.58h118.5v14.58c-9.9 2.4034-17.1 5.4094-21.4 9.0991-4.4 3.6706-7.3 8.6941-8.9 15.054-1.6 6.336-2.4 15.435-2.4 27.369v179.55zm-725.3 68.483c-12.5 1.575-26.3 2.361-41.3 2.361-31 0-57.6-6.646-80-19.939-22.3-13.294-39.3-32.252-51.1-56.858-11.6-24.627-17.5-53.305-17.5-86.057 0-52.405 11.2-91.9 33.6-118.48 22.5-26.628 55.6-39.922 99.5-39.922 19 0 36.9 1.1219 53.6 3.4324 16.7 2.2867 34.6 6.5003 53.8 12.622v72.102h-27.9c-5.6-16.886-11.5-29.679-17.7-38.447-6.3-8.737-13.8-15.097-22.7-19.196-8.7-4.0732-20-6.0978-33.4-6.0978-18.1 0-33.3 5.4999-45.6 16.557-12.3 10.981-21.6 27.104-27.9 48.349-6.2 21.249-9.3 46.476-9.3 75.631 0 27.774 3.4 51.567 10.3 71.314 6.8 19.743 16.7 34.774 29.6 45.116 12.9 10.288 28.2 15.459 45.9 15.459 12.6 0 23.4-1.837 32.1-5.483 8.7-3.688 16.2-9.933 22.5-18.768 6.2-8.813 11.5-20.794 15.9-35.874h28v71.149c-21.3 5.769-38.1 9.434-50.4 11.03zm-809.1-236.43v-70.218c16-3.4324 32.4-6.286 49.1-8.6703 16.7-2.3605 33.7-3.5729 51-3.5729 39.2 0 68.8 7.5246 88.5 22.628 19.8 15.08 29.6 37.849 29.6 68.174 0 11.934-2 22.221-6.2 30.989-4.2 8.737-10.2 16.574-18 23.508-7.8 6.958-17.4 13.341-28.6 19.225-11.2 5.835-23.9 11.738-38 17.671-23 9.745-38.7 17.605-47.1 23.532-8.5 5.983-14.4 12.367-17.9 19.25-3.5 6.813-5.2 15.312-5.2 25.435 0 14.294 5.2 25.634 15.7 33.921 10.6 8.361 24.9 12.508 43 12.508 12.2 0 22.3-1.646 30.1-4.909 7.9-3.264 14.9-8.647 21-16.081 6.2-7.408 12.4-18.293 18.8-32.58h28.8v68.478c-17.4 3.55-33.4 6.051-47.8 7.435-14.3 1.376-29 2.072-43.8 2.072-16.1 0-31.3-1.622-45.6-4.909-14.3-3.237-26.8-8.482-37.5-15.628-10.7-7.141-19.2-16.221-25.3-27.245-6.2-10.983-9.3-24.153-9.3-39.424 0-8.932 1.4-17.078 4.1-24.438 2.7-7.337 7.1-14.671 13.4-22.007 6.2-7.361 14.4-14.294 24.4-20.866 10-6.551 24.8-13.982 44.2-22.319 26.6-11.507 44.3-20.44 53.1-26.823 8.9-6.336 14.9-12.789 18.1-19.344 3.1-6.548 4.7-14.408 4.7-23.507 0-16.481-5.5-29.012-16.4-37.537-10.9-8.5559-26.2-12.793-45.8-12.793-14.9 0-27.1 1.9032-36.6 5.6714-9.6 3.7373-17.5 9.7874-23.7 17.981-6.3 8.2892-11.6 19.723-16.2 34.393h-28.6zm-461.1 3.006c-7 12.098-17.1 28.178-30.4 48.234l-120.8 182.81h-87.6v-14.597c10.7-2.574 18.2-5.769 22.3-9.506 4.2-3.787 7.1-8.787 8.7-15.056 1.6-6.239 2.4-15.221 2.4-26.94v-179.55c0-11.507-0.9-20.482-2.5-26.94-1.8-6.4527-4.7-11.507-9-15.197s-11.6-6.7862-21.9-9.3849v-14.58h102.4v14.58c-10.1 2.4034-17.3 5.4999-21.7 9.2444-4.4 3.7634-7.4 8.837-9.1 15.197s-2.5 15.409-2.5 27.08v126.58c0 9.697-0.1 19.579-0.3 29.605-0.3 10.007-0.7 20.58-1.5 31.708h2.1c4.3-8.146 8.8-15.58 13.4-22.323l158.7-233.74h33.3v247.72c0 11.507 0.8 20.489 2.4 26.94 1.6 6.457 4.5 11.531 8.8 15.178 4.3 3.689 11.6 6.81 22.2 9.384v14.597h-102.5v-14.597c10.2-2.384 17.4-5.457 21.7-9.22 4.4-3.787 7.5-8.835 9.1-15.171 1.7-6.386 2.6-15.392 2.6-27.111v-103.62c0-9.713 0.1-19.622 0.3-29.653 0.2-10.006 0.7-20.58 1.5-31.677h-2.1zm-722.8 206.63c10.3 0 18.3-1.329 24.1-3.999 5.7-2.689 10.9-7.411 15.3-14.147 4.5-6.769 9.1-16.795 13.9-30.086h27.9v72.647h-246.2v-14.597c10.7-2.574 18.1-5.769 22.3-9.506 4.2-3.787 7.1-8.787 8.7-15.056 1.6-6.239 2.4-15.221 2.4-26.94v-179.55c0-11.507-0.9-20.482-2.6-26.94-1.7-6.4527-4.6-11.507-9-15.197-4.2-3.6896-11.5-6.7862-21.8-9.3849v-14.58h246.5l5.1 83.68h-28c-5.3-16.481-9.9-28.152-13.5-34.988-3.7-6.86-7.6-11.957-11.7-15.318-4-3.3847-9-5.7191-14.8-7.0005-5.9-1.3101-13.6-1.9818-23.1-1.9818h-74.4v125.36h47.3c8.8 0 15.2-1.072 19.2-3.285 4.1-2.172 7.5-5.721 10.3-10.697 2.7-4.933 5.2-11.598 7.4-19.963h25.9v92.327h-25.9c-2.6-9.502-5.3-16.581-8-21.154-2.8-4.55-6.4-7.835-10.7-9.812-4.4-2.001-10.4-2.975-18.2-2.975h-47.3v113.14h78.9zm-631.1-287.33v14.58c-12.74 2.4034-21.46 5.5738-26.1 9.5755-4.63 3.9326-7.8 9.554-9.39 16.793-1.59 7.2673-2.38 18.391-2.38 33.488v212.9h34.27c10.12 0 18.3-1.806 24.58-5.359 6.22-3.569 11.76-9.647 16.64-18.172 4.88-8.549 9.52-20.53 14.15-36.013h27.99v83.959h-287.94v-83.959h27.99c4.76 15.859 9.51 28.031 14.27 36.489 4.75 8.408 10.24 14.342 16.4 17.841 6.16 3.478 14.33 5.214 24.39 5.214h34.52v-212.9c0-10.5-0.37-19.244-1.1-26.201-0.86-6.9267-2.5-12.646-5.12-17.098-2.56-4.4591-6.41-7.9343-11.47-10.433-5.06-2.501-11.83-4.4828-20.36-6.124v-14.58h128.66zm-679.42 287.33c10.37 0 18.36-1.329 24.15-3.999 5.73-2.689 10.86-7.411 15.31-14.147 4.45-6.769 9.08-16.795 13.84-30.086h27.99v72.647h-246.23v-14.597c10.67-2.574 18.17-5.769 22.32-9.506 4.2-3.787 7.07-8.787 8.66-15.056 1.58-6.239 2.37-15.221 2.37-26.94v-179.55c0-11.507-0.85-20.482-2.49-26.94-1.71-6.4527-4.7-11.507-8.97-15.197s-11.59-6.7862-21.89-9.3849v-14.58h246.53l5.07 83.68h-28c-5.36-16.481-9.87-28.152-13.53-34.988-3.72-6.86-7.5-11.957-11.59-15.318-4.08-3.3847-9.02-5.7191-14.94-7.0005-5.79-1.3101-13.53-1.9818-23.11-1.9818h-74.39v125.36h47.38c8.72 0 15.12-1.072 19.15-3.285 4.14-2.172 7.5-5.721 10.3-10.697 2.75-4.933 5.25-11.598 7.44-19.963h25.92v92.327h-25.92c-2.62-9.502-5.24-16.581-8.05-21.154-2.74-4.55-6.34-7.835-10.67-9.812-4.45-2.001-10.43-2.975-18.17-2.975h-47.38v113.14h78.9zm-719.47-288.81h44.27l97.13 246.25c4.94 12.696 9.03 22.033 12.32 28.131 3.23 6.048 6.28 10.53 8.91 13.389 2.74 2.879 5.48 5.073 8.23 6.55 2.74 1.475 6.95 2.927 12.5 4.311v14.597h-105.98v-14.597c10.67-2.172 18.29-5.55 22.74-10.099 4.45-4.573 6.71-11.031 6.71-19.389 0-6.148-1.04-12.844-2.99-20.106-2.01-7.244-4.14-14.123-6.52-20.678l-62.26-170.9-65.8 255.77h-48.84l-82.81-255.46-52.38 176.86c-2.38 7.739-4.14 14.526-5.3 20.366-1.22 5.855-1.83 11.476-1.83 16.838 0 7.744 2.07 13.553 6.1 17.415 4.08 3.877 11.89 7 23.41 9.384v14.597h-120v-14.597c7.31-1.786 12.8-4.123 16.4-6.981 3.54-2.88 6.95-7.313 10.12-13.27 3.17-5.952 7.02-16.049 11.59-30.367l78.6-248.01h44.7l83.29 249.51 67.69-249.51zm-1025.6 82.18c-7.01 12.098-17.13 28.178-30.43 48.234l-120.86 182.81h-87.56v-14.597c10.79-2.574 18.17-5.769 22.32-9.506 4.2-3.787 7.07-8.787 8.66-15.056 1.58-6.239 2.37-15.221 2.37-26.94v-179.55c0-11.507-0.85-20.482-2.5-26.94-1.7-6.4527-4.75-11.507-8.96-15.197-4.27-3.6896-11.59-6.7862-21.89-9.3849v-14.58h102.44v14.58c-10.12 2.4034-17.38 5.4999-21.71 9.2444-4.39 3.7634-7.37 8.837-9.14 15.197-1.65 6.3598-2.5 15.409-2.5 27.08v126.58c0 9.697-0.12 19.579-0.31 29.605-0.18 10.007-0.67 20.58-1.52 31.708h2.13c4.39-8.146 8.84-15.58 13.42-22.323l158.66-233.74h33.36v247.72c0 11.507 0.79 20.489 2.38 26.94 1.58 6.457 4.51 11.531 8.83 15.178 4.21 3.689 11.59 6.81 22.14 9.384v14.597h-102.44v-14.597c10.12-2.384 17.38-5.457 21.71-9.22 4.39-3.787 7.44-8.835 9.14-15.171 1.65-6.386 2.5-15.392 2.5-27.111v-103.62c0-9.713 0.13-19.622 0.31-29.653 0.18-10.006 0.67-20.58 1.46-31.677h-2.01zm-774.05 183.7 48.84-140.23h-107.2l58.36 140.23zm161.34-264.4v14.58c-8.11 2.0009-14.2 4.6472-18.35 7.9105-4.03 3.2609-7.62 7.9319-10.67 14.006-3.05 6.0478-6.89 15.623-11.47 28.726l-87.8 251.27h-42.02l-108.11-243.56c-7.14-16.271-12.93-27.94-17.38-34.967-4.45-7.0482-9.15-12.408-13.97-16.078-4.87-3.6896-10.79-6.1216-17.74-7.3126v-14.58h112.87v14.58c-11.71 2.5987-19.94 6.0264-24.57 10.269-4.64 4.2875-7.01 10.69-7.01 19.246 0 4.5471 0.66 9.6468 2.07 15.311 1.34 5.6452 4.27 14.154 8.66 25.463l5.67 14.892h125l6.59-21.154c2.56-8.1224 4.51-14.956 5.91-20.554 1.41-5.5261 2.08-10.983 2.08-16.366 0-5.3618-0.92-9.6731-2.81-12.958-1.89-3.2871-4.7-5.862-8.35-7.7151-3.66-1.908-10.25-4.0303-19.82-6.4337v-14.58h121.22zm-946.7 311.75v-14.597c7.31-1.574 13.01-3.861 17.11-6.836 4.05-2.982 7.72-7.317 11-12.934 3.27-5.671 7.5-15.866 12.68-30.536l87.51-251.61h37.54l109.85 249.82c6.34 14.292 11.51 24.603 15.48 30.963 3.96 6.36 7.96 11.031 12.08 13.982 4.08 2.978 9.86 5.362 17.41 7.148v14.597h-112.55v-14.597c11.91-2.574 20.11-6.031 24.71-10.409 4.55-4.361 6.86-10.721 6.86-19.079 0-6.336-1.13-13.27-3.29-20.818-2.2-7.556-5.57-16.891-10.12-27.991l-67.6-163.48-58.63 177.77c-2.59 7.739-4.59 14.507-5.97 20.245-1.39 5.738-2.1 11.312-2.1 16.671 0 5.171 0.91 9.385 2.72 12.672 1.74 3.268 4.55 5.957 8.31 8.029 3.76 2.075 10.34 4.214 19.65 6.386v14.597h-122.65zm-731.71-24.415c10.3 0 18.37-1.329 24.08-3.999 5.8-2.689 10.89-7.411 15.34-14.147 4.48-6.769 9.13-16.795 13.89-30.086h27.96v72.647h-246.24v-14.597c10.74-2.574 18.15-5.769 22.32-9.506 4.17-3.787 7.07-8.787 8.67-15.056 1.57-6.239 2.33-15.221 2.33-26.94v-179.55c0-11.507-0.83-20.482-2.52-26.94-1.64-6.4527-4.65-11.507-8.91-15.197-4.24-3.6896-11.57-6.7862-21.89-9.3849v-14.58h246.55l5.05 83.68h-27.96c-5.36-16.481-9.91-28.152-13.57-34.988-3.67-6.86-7.54-11.957-11.61-15.318-4.05-3.3847-9.05-5.7191-14.88-7.0005-5.84-1.3101-13.53-1.9818-23.08-1.9818h-74.44v125.36h47.35c8.7 0 15.1-1.072 19.23-3.285 4.05-2.172 7.42-5.721 10.26-10.697 2.76-4.933 5.24-11.598 7.41-19.963h25.89v92.327h-25.89c-2.58-9.502-5.26-16.581-8.03-21.154-2.76-4.55-6.36-7.835-10.69-9.812-4.39-2.001-10.43-2.975-18.18-2.975h-47.35v113.14h78.91zm-565.35-272.75c-10.08 2.4034-17.34 5.4999-21.72 9.2444-4.36 3.7634-7.39 8.837-9.08 15.197s-2.5 15.409-2.5 27.08v179.55c0 11.317 0.76 20.201 2.36 26.659 1.59 6.452 4.43 11.55 8.48 15.337 4.07 3.737 11.57 6.932 22.46 9.506v14.597h-119.39v-14.597c10.75-2.574 18.18-5.769 22.35-9.506 4.14-3.787 7.03-8.787 8.62-15.056 1.62-6.239 2.41-15.221 2.41-26.94v-179.55c0-11.507-0.86-20.482-2.58-26.94-1.67-6.4527-4.64-11.507-8.91-15.197-4.26-3.6896-11.55-6.7862-21.89-9.3849v-14.58h119.39v14.58zm-702.54 39.038 96.45 203.66h3.29c-1.39-19.27-2.07-35.661-2.07-49.142v-142.04c0-11.507-0.79-20.435-2.39-26.795-1.61-6.3598-4.52-11.433-8.81-15.152-4.24-3.8112-11.55-6.9768-21.87-9.5755v-14.58h117.6v14.58c-9.93 2.4034-17.06 5.4094-21.39 9.0991-4.4 3.6706-7.39 8.6941-9 15.054-1.52 6.336-2.36 15.435-2.36 27.369v179.55c0 11.317 0.76 20.13 2.24 26.49 1.48 6.359 4.28 11.457 8.34 15.342 4.07 3.882 11.47 7.096 22.17 9.67v14.597h-93.52l-94.06-200.39-84.85 200.39h-102.72v-14.597c10.71-2.574 18.14-5.769 22.34-9.506 4.14-3.787 7.05-8.787 8.65-15.056 1.57-6.239 2.33-15.221 2.33-26.94v-179.55c0-11.507-0.81-20.482-2.53-26.94-1.66-6.4527-4.64-11.507-8.9-15.197-4.27-3.6896-11.58-6.7862-21.89-9.3849v-14.58h102.42v14.58c-10.12 2.4034-17.37 5.4999-21.73 9.2444-4.36 3.7634-7.41 8.837-9.09 15.197-1.69 6.3598-2.53 15.409-2.53 27.08v133.39c0 9.745-0.12 19.604-0.31 29.634-0.19 10.002-0.69 20.58-1.48 31.728h3.27l90.85-207.23h31.55zm-677.3 233.72c10.33 0 18.39-1.329 24.15-3.999 5.74-2.689 10.84-7.411 15.34-14.147 4.43-6.769 9.08-16.795 13.84-30.086h27.99v72.647h-246.22v-14.597c10.69-2.574 18.15-5.769 22.31-9.506 4.13-3.787 7.03-8.787 8.63-15.056 1.57-6.239 2.4-15.221 2.4-26.94v-179.55c0-11.507-0.88-20.482-2.57-26.94-1.69-6.4527-4.67-11.507-8.91-15.197-4.29-3.6896-11.57-6.7862-21.86-9.3849v-14.58h246.5l5.08 83.68h-28.01c-5.34-16.481-9.87-28.152-13.54-34.988-3.69-6.86-7.57-11.957-11.62-15.318-4.07-3.3847-9.05-5.7191-14.88-7.0005-5.86-1.3101-13.53-1.9818-23.08-1.9818h-74.42v125.36h47.31c8.77 0 15.17-1.072 19.25-3.285 4.05-2.172 7.45-5.721 10.26-10.697 2.76-4.933 5.24-11.598 7.41-19.963h25.94v92.327h-25.94c-2.57-9.502-5.26-16.581-8.03-21.154-2.76-4.55-6.36-7.835-10.69-9.812-4.39-2.001-10.43-2.975-18.2-2.975h-47.31v113.14h78.87zm-743.93 0c25.58 0 47.62-4.573 66.07-13.72 18.46-9.123 32.8-23.457 42.88-42.989 10.12-19.556 15.19-44.233 15.19-73.984 0-44.685-10.36-77.894-31.13-99.639-20.72-21.726-52.11-32.611-94.23-32.611h-6.86c-8.12 0-15.08 0.3358-20.81 0.9337v261.11c5.36 0.622 14.98 0.903 28.89 0.903zm-1.53-287.33c34.93 0 62.74 3.3609 83.42 10.007 20.61 6.648 38.02 16.604 52.24 29.891 14.17 13.294 24.96 29.588 32.29 48.856 8.13 20.63 12.25 44.447 12.25 71.437 0 27.414-4.08 50.683-12.1 69.837-8.03 19.153-19.42 34.85-34.09 47.019-14.69 12.246-32.16 21.057-52.42 26.49-20.23 5.5-45.95 8.213-77.11 8.213h-117.31v-14.597c10.34-2.384 17.56-5.457 21.75-9.22 4.14-3.787 7.05-8.835 8.62-15.171 1.59-6.386 2.38-15.392 2.38-27.111v-179.55c0-11.507-0.79-20.482-2.38-26.94-1.57-6.4527-4.48-11.507-8.62-15.197-4.19-3.6896-11.41-6.7862-21.75-9.3849v-14.58h112.83zm-649.86 264.4 48.85-140.23h-107.19l58.34 140.23zm161.38-264.4v14.58c-8.13 2.0009-14.25 4.6472-18.3 7.9105-4.1 3.2609-7.67 7.9319-10.74 14.006-3.08 6.0478-6.89 15.623-11.46 28.726l-87.82 251.27h-42l-108.07-243.56c-7.16-16.271-12.96-27.94-17.43-34.967-4.43-7.0482-9.1-12.408-13.98-16.078-4.86-3.6896-10.77-6.1216-17.7-7.3126v-14.58h112.83v14.58c-11.69 2.5987-19.91 6.0264-24.56 10.269-4.66 4.2875-7 10.69-7 19.246 0 4.5471 0.67 9.6468 2.1 15.311 1.38 5.6452 4.24 14.154 8.6 25.463l5.66 14.892h125.08l6.53-21.154c2.57-8.1224 4.55-14.956 5.98-20.554 1.38-5.5261 2.07-10.983 2.07-16.366 0-5.3618-0.95-9.6731-2.81-12.958-1.93-3.2871-4.7-5.862-8.38-7.7151-3.65-1.908-10.25-4.0303-19.77-6.4337v-14.58h121.17zm-888.35 245.65c0 11.317 0.762 20.201 2.358 26.659 1.598 6.452 4.428 11.55 8.501 15.337 4.049 3.737 11.555 6.932 22.488 9.506v14.597h-119.41v-14.597c10.721-2.574 18.148-5.769 22.343-9.506 4.146-3.787 7-8.787 8.622-15.056 1.598-6.239 2.385-15.221 2.385-26.94v-179.55c0-11.507-0.86-20.482-2.525-26.94-1.72-6.4527-4.671-11.507-8.933-15.197-4.287-3.6896-11.581-6.7862-21.892-9.3849v-14.58h119.41v14.58c-10.121 2.4034-17.391 5.4999-21.75 9.2444-4.378 3.7634-7.379 8.837-9.072 15.197-1.692 6.3598-2.525 15.409-2.525 27.08v84.583h12.219c4.714 0 8.549-0.264 11.433-0.762 2.885-0.5 5.312-1.141 7.311-1.927 1.977-0.812 4.006-2.001 6.097-3.599 2.099-1.572 4.074-3.452 5.984-5.622 1.834-2.213 4.073-4.976 6.665-8.36l50.33-66.388c7.934-10.523 12.77-17.908 14.44-22.195 1.688-4.2684 2.501-8.5798 2.501-12.934 0-4.3828-1.525-7.7675-4.6-10.104-3.073-2.401-7.694-3.8111-13.841-4.2137v-14.58h123.3v14.58c-8.55 2.2152-15.412 4.8354-20.56 7.9105-5.171 3.0727-9.835 6.7361-14.029 11-4.147 4.2923-9.909 11.176-17.222 20.678l-91.729 119.43 85.748 86.346c13.701 13.67 24.634 23.012 32.757 27.988 8.146 4.976 15.785 8.025 22.935 9.22v14.597h-126.56v-14.597c8.909-1 15.318-3.22 19.201-6.719 3.861-3.428 5.812-8.458 5.812-15.009 0-5.547-1.024-11.121-3.123-16.671-2.072-5.571-5.907-12.029-11.457-19.365-5.574-7.337-14.647-17.319-27.226-29.891-12.622-12.648-21.842-21.057-27.721-25.325-5.836-4.261-11.605-7.263-17.269-8.928-5.645-1.72-13.341-2.548-23.062-2.548h-8.334v72.954zm-622.5 18.751 48.854-140.23h-107.19l58.334 140.23zm161.38-264.4v14.58c-8.122 2.0009-14.244 4.6472-18.293 7.9105-4.097 3.2609-7.67 7.9319-10.743 14.006-3.073 6.0478-6.884 15.623-11.457 28.726l-87.846 251.27h-41.97l-108.09-243.56c-7.1459-16.271-12.934-27.94-17.412-34.967-4.4304-7.0482-9.099-12.408-13.982-16.078-4.8592-3.6896-10.766-6.1216-17.698-7.3126v-14.58h112.83v14.58c-11.719 2.5987-19.913 6.0264-24.558 10.269-4.6686 4.2875-7.0029 10.69-7.0029 19.246 0 4.5471 0.6669 9.6468 2.0961 15.311 1.3815 5.6452 4.2399 14.154 8.5988 25.463l5.6691 14.892h125.08l6.527-21.154c2.572-8.1224 4.549-14.956 5.978-20.554 1.382-5.5261 2.073-10.983 2.073-16.366 0-5.3618-0.953-9.6731-2.811-12.958-1.929-3.2871-4.692-5.862-8.384-7.7151-3.645-1.908-10.267-4.0303-19.771-6.4337v-14.58h121.17"/><path d="m12622 4391v-38.12h152.5v38.12h-152.5"/><path d="m13956 4391v-38.12h152.5v38.12h-152.5"/><path d="m12393 3628.6v-800.6h76.3v800.6h-76.3"/><path d="m12660 3628.6v-800.6h76.2v800.6h-76.2"/><path d="m12927 3628.6v-800.6h76.2v800.6h-76.2"/><path d="m13194 3628.6v-800.6h76.2v800.6h-76.2"/><path d="m13461 3628.6v-800.6h76.3v800.6h-76.3"/><path d="m13728 3628.6v-800.6h76.2v800.6h-76.2"/><path d="m13994 3628.6v-800.6h76.3v800.6h-76.3"/><path d="m14261 3628.6v-800.6h76.2v800.6h-76.2"/><path d="m12508 2675.5h114.4v-152.51h-114.4v152.51"/><path d="m12508 2446.8h114.4v-76.26h-114.4v76.26"/><path d="m13042 2675.5h114.4v-152.51h-114.4v152.51"/><path d="m13042 2446.8h114.4v-76.26h-114.4v76.26"/><path d="m13308 2675.5h114.4v-152.51h-114.4v152.51"/><path d="m13308 2446.8h114.4v-76.26h-114.4v76.26"/><path d="m13575 2675.5h114.4v-152.51h-114.4v152.51"/><path d="m13575 2446.8h114.4v-76.26h-114.4v76.26"/><path d="m14109 2675.5h114.4v-152.51h-114.4v152.51"/><path d="m14109 2446.8h114.4v-76.26h-114.4v76.26"/><path d="m12736 2675.5h190.7v-304.99h-190.7v304.99"/><path d="m13804 2675.5h190.6v-304.99h-190.6v304.99"/><path d="m14414 2713.6 38.2 38.12h-610.1v76.25h-38.1v-76.25h-876.8v76.25h-38.1v-76.25h-610l38.2-38.12h2096.7"/><path d="m12546 4086.1v-76.23h76.3v76.23l-38.1 19.15-38.2-19.15"/><path d="m14109 4086.1v-76.23h76.3v76.23l-38.2 19.02-38.1-19.02"/><path d="m13308 4009.8-110.2 27.1 8.1 30.08 101.9-25.04 0.2 44.09h38.2v38.14h38.1v-38.14h38.1v-44.09l101.9 25.04 7.4-29.48-109.3-27.7h-38.1v52.42h-38.1v-52.42h-38.2"/><path d="m12978 4009.8 387.7 190.6 386-190.6h-81.5l-304.5 142.95-295.6-142.95h-92.1"/><path d="m12927 3819.2v114.36h876.8v-114.36zm-38.1 190.62 476.5 228.74 476.5-228.74v-38.14h-953zm1524.9-76.26 38.2 38.12h-571.9v38.14h190.6v97.57l76.2 37.18 76.3-38.94v-95.81h152.5l-266.9 266.85h-152.5v38.12h-1181.8v-38.12h-152.5l-266.9-266.85h152.5v97.57l76.3 35.41 76.2-37.17v-95.81h190.7v-38.14h-571.9l38.2-38.12h571.8v-114.36h-533.8v-38.12h38.1v-114.38h76.3v114.38h190.6v-114.38h76.2v114.38h190.7v-114.38h76.2v114.38h190.7v-114.38h76.2v114.38h190.6v-114.38h76.3v114.38h190.6v-114.38h76.2v114.38h190.6v-114.38h76.3v114.38h190.6v-114.38h76.2v114.38h38.2v38.12h-533.8v114.36h571.9"/></g></g></g></svg>
